<svg xmlns="http://www.w3.org/2000/svg" xmlns:xlink="http://www.w3.org/1999/xlink" width="183" zoomAndPan="magnify" viewBox="0 0 137.25 30.000001" height="40" preserveAspectRatio="xMidYMid meet" version="1.0"><defs><g/><clipPath id="ed41d81951"><path d="M 5 3 L 29 3 L 29 27.582031 L 5 27.582031 Z M 5 3 " clip-rule="nonzero"/></clipPath></defs><path fill="#f16529" d="M 13.339844 9.171875 L 13.933594 9.171875 L 13.933594 9.8125 L 14.625 9.8125 L 14.625 7.839844 L 13.933594 7.839844 L 13.933594 8.480469 L 13.339844 8.480469 L 13.339844 7.839844 L 12.652344 7.839844 L 12.652344 9.8125 L 13.339844 9.8125 Z M 13.339844 9.171875 " fill-opacity="1" fill-rule="nonzero"/><path fill="#f16529" d="M 15.710938 9.8125 L 16.351562 9.8125 L 16.351562 8.480469 L 16.945312 8.480469 L 16.945312 7.839844 L 15.117188 7.839844 L 15.117188 8.480469 L 15.710938 8.480469 Z M 15.710938 9.8125 " fill-opacity="1" fill-rule="nonzero"/><path fill="#f16529" d="M 17.980469 8.824219 L 18.425781 9.566406 L 18.871094 8.824219 L 18.871094 9.8125 L 19.558594 9.8125 L 19.558594 7.839844 L 18.871094 7.839844 L 18.425781 8.53125 L 17.980469 7.839844 L 17.289062 7.839844 L 17.289062 9.8125 L 17.980469 9.8125 Z M 17.980469 8.824219 " fill-opacity="1" fill-rule="nonzero"/><path fill="#f16529" d="M 21.535156 9.171875 L 20.597656 9.171875 L 20.597656 7.839844 L 19.90625 7.839844 L 19.90625 9.8125 L 21.535156 9.8125 Z M 21.535156 9.171875 " fill-opacity="1" fill-rule="nonzero"/><path fill="#f16529" d="M 11.664062 10.800781 L 12.652344 21.65625 L 17.09375 22.644531 L 21.535156 21.65625 L 22.523438 10.800781 Z M 20.300781 14.253906 L 15.117188 14.253906 L 15.367188 15.242188 L 20.054688 15.242188 L 19.558594 19.683594 L 17.09375 20.671875 L 14.625 19.683594 L 14.230469 17.710938 L 15.613281 17.710938 L 15.859375 18.695312 L 17.09375 19.191406 L 18.328125 18.695312 L 18.574219 16.722656 L 14.132812 16.722656 L 13.636719 12.773438 L 20.546875 12.773438 Z M 20.300781 14.253906 " fill-opacity="1" fill-rule="nonzero"/><g clip-path="url(#ed41d81951)"><path fill="#f16529" d="M 17.09375 3.398438 C 10.527344 3.398438 5.246094 8.679688 5.246094 15.242188 C 5.246094 21.804688 10.527344 27.085938 17.09375 27.085938 C 23.65625 27.085938 28.9375 21.804688 28.9375 15.242188 C 28.9375 8.679688 23.65625 3.398438 17.09375 3.398438 Z M 17.09375 24.621094 C 11.910156 24.621094 7.714844 20.425781 7.714844 15.242188 C 7.714844 10.058594 11.910156 5.863281 17.09375 5.863281 C 22.273438 5.863281 26.46875 10.058594 26.46875 15.242188 C 26.46875 20.425781 22.273438 24.621094 17.09375 24.621094 Z M 17.09375 24.621094 " fill-opacity="1" fill-rule="nonzero"/></g><g fill="#000000" fill-opacity="1"><g transform="translate(63.881601, 17.785259)"><g><path d="M 6.078125 -4.890625 L 6.078125 -7.828125 L 7.609375 -7.828125 L 7.609375 0 L 6.078125 0 L 6.078125 -3.5625 L 2.5625 -3.5625 L 2.5625 0 L 1.015625 0 L 1.015625 -7.828125 L 2.5625 -7.828125 L 2.5625 -4.890625 Z M 6.078125 -4.890625 "/></g></g></g><g fill="#000000" fill-opacity="1"><g transform="translate(72.518781, 17.785259)"><g><path d="M 6.28125 -7.828125 L 6.28125 -6.53125 L 4.015625 -6.53125 L 4.015625 0 L 2.46875 0 L 2.46875 -6.53125 L 0.21875 -6.53125 L 0.21875 -7.828125 Z M 6.28125 -7.828125 "/></g></g></g><g fill="#000000" fill-opacity="1"><g transform="translate(79.008711, 17.785259)"><g><path d="M 2.4375 0 L 1.015625 0 L 1.015625 -7.828125 L 3.046875 -7.828125 L 5.03125 -2.078125 L 5.140625 -2.078125 L 7.109375 -7.828125 L 9.078125 -7.828125 L 9.078125 0 L 7.609375 0 L 7.609375 -5.171875 L 7.484375 -5.1875 L 5.671875 0 L 4.375 0 L 2.578125 -5.1875 L 2.4375 -5.171875 Z M 2.4375 0 "/></g></g></g><g fill="#000000" fill-opacity="1"><g transform="translate(89.113087, 17.785259)"><g><path d="M 2.5625 -7.828125 L 2.5625 -1.296875 L 6.078125 -1.296875 L 6.078125 0 L 1.015625 0 L 1.015625 -7.828125 Z M 2.5625 -7.828125 "/></g></g></g><g fill="#000000" fill-opacity="1"><g transform="translate(95.454181, 17.785259)"><g/></g></g></svg>