<?xml version="1.0" encoding="UTF-8"?> <svg xmlns="http://www.w3.org/2000/svg" width="439" height="54" viewBox="0 0 439 54" fill="none"><g clip-path="url(#clip0_4134_264)"><path d="M58.292 22.7261V22.6841C58.2839 21.6551 58.4823 20.635 58.8756 19.6841C59.2688 18.7331 59.8489 17.8708 60.5815 17.1482C61.314 16.4255 62.1841 15.8572 63.1403 15.4769C64.0965 15.0966 65.1192 14.912 66.148 14.9341C68.3038 14.8201 70.418 15.5577 72.035 16.9881L69.959 19.4931C68.9042 18.4902 67.4961 17.9443 66.041 17.9741C64.8531 18.0261 63.734 18.5461 62.9283 19.4206C62.1226 20.2951 61.6957 21.4529 61.741 22.6411V22.6841C61.705 23.2995 61.7961 23.9157 62.0086 24.4943C62.2211 25.0729 62.5504 25.6016 62.9761 26.0474C63.4019 26.4932 63.9148 26.8466 64.483 27.0855C65.0513 27.3244 65.6626 27.4437 66.279 27.4361C67.3811 27.4682 68.4654 27.1534 69.379 26.5361V24.3961H66.061V21.5461H72.57V28.0541C70.7934 29.5928 68.5202 30.4367 66.17 30.4301C65.1363 30.4827 64.103 30.3208 63.135 29.9545C62.1669 29.5883 61.2852 29.0256 60.5452 28.302C59.8052 27.5783 59.223 26.7094 58.8352 25.7498C58.4475 24.7902 58.2625 23.7607 58.292 22.7261Z" fill="white"></path><path d="M75.747 15.1909H81.592C86.302 15.1909 89.556 18.4229 89.556 22.6409V22.6839C89.556 26.9009 86.302 30.1759 81.592 30.1759H75.748L75.747 15.1909ZM81.592 27.1999C82.1908 27.2355 82.7904 27.1445 83.3516 26.9328C83.9129 26.7212 84.4233 26.3936 84.8494 25.9715C85.2756 25.5494 85.6081 25.0421 85.8251 24.4829C86.0421 23.9237 86.1389 23.325 86.109 22.7259V22.6839C86.1403 22.0824 86.045 21.4811 85.8291 20.9188C85.6132 20.3565 85.2816 19.8459 84.8557 19.4199C84.4299 18.994 83.9193 18.6623 83.3571 18.4462C82.7948 18.2302 82.1935 18.1347 81.592 18.1659H79.045V27.1999H81.592Z" fill="white"></path><path d="M92.492 15.1909H98.614C102.189 15.1909 104.351 17.3099 104.351 20.3709V20.4139C104.351 23.8819 101.651 25.6809 98.294 25.6809H95.792V30.1809H92.492V15.1909ZM98.4 22.7469C98.7239 22.788 99.0529 22.7603 99.3653 22.6656C99.6778 22.5709 99.9668 22.4113 100.213 22.1972C100.46 21.9831 100.658 21.7194 100.796 21.4233C100.934 21.1272 101.007 20.8054 101.012 20.4789V20.4359C101.012 18.9579 99.984 18.1659 98.336 18.1659H95.792V22.7459L98.4 22.7469Z" fill="white"></path><path d="M106.792 15.1909H113.642C114.434 15.1412 115.229 15.2499 115.978 15.5107C116.728 15.7716 117.419 16.1792 118.009 16.7099C118.441 17.1663 118.777 17.7045 118.998 18.2929C119.219 18.8813 119.319 19.508 119.294 20.1359V20.1789C119.342 21.1981 119.054 22.2048 118.473 23.0441C117.893 23.8833 117.053 24.5087 116.083 24.8239L119.744 30.1759H115.892L112.681 25.3809H110.092V30.1759H106.792V15.1909ZM113.428 22.4689C115.034 22.4689 115.955 21.6119 115.955 20.3499V20.3069C115.955 18.8939 114.969 18.1659 113.364 18.1659H110.092V22.4659L113.428 22.4689Z" fill="white"></path><path d="M58.292 36.2733V36.2523C58.2835 35.7724 58.3722 35.2957 58.5528 34.851C58.7334 34.4063 59.0023 34.0027 59.343 33.6647C59.6838 33.3266 60.0895 33.061 60.5356 32.884C60.9818 32.7069 61.4591 32.622 61.939 32.6343C62.4491 32.609 62.9588 32.6922 63.4344 32.8783C63.91 33.0645 64.3406 33.3494 64.698 33.7143L63.718 34.8433C63.2479 34.3563 62.6056 34.0731 61.929 34.0543C61.6513 34.0599 61.3776 34.1211 61.1241 34.2345C60.8706 34.3478 60.6424 34.511 60.4531 34.7142C60.2639 34.9175 60.1174 35.1567 60.0224 35.4176C59.9274 35.6786 59.8858 35.956 59.9 36.2333V36.2523C59.8837 36.5312 59.9237 36.8105 60.0177 37.0735C60.1117 37.3366 60.2578 37.578 60.4472 37.7833C60.6365 37.9887 60.8654 38.1537 61.12 38.2687C61.3746 38.3836 61.6497 38.4461 61.929 38.4523C62.2753 38.4491 62.6172 38.3747 62.9336 38.2339C63.2499 38.093 63.5339 37.8886 63.768 37.6333L64.748 38.6223C64.3957 39.0343 63.9543 39.3608 63.4573 39.5772C62.9603 39.7936 62.4206 39.8941 61.879 39.8713C61.4049 39.8789 60.9342 39.791 60.4948 39.6127C60.0554 39.4345 59.6565 39.1695 59.3217 38.8338C58.987 38.498 58.7233 38.0982 58.5464 37.6583C58.3695 37.2184 58.283 36.7474 58.292 36.2733Z" fill="white"></path><path d="M65.475 36.2734V36.2524C65.5041 35.2873 65.9073 34.3713 66.5994 33.6981C67.2915 33.0248 68.2182 32.647 69.1838 32.6445C70.1493 32.6421 71.078 33.0151 71.7735 33.6848C72.4691 34.3546 72.877 35.2685 72.911 36.2334V36.2524C72.8822 37.2176 72.4792 38.1337 71.7873 38.8072C71.0954 39.4806 70.1687 39.8587 69.2032 39.8614C68.2376 39.8641 67.3088 39.4913 66.6131 38.8218C65.9174 38.1522 65.5093 37.2384 65.475 36.2734ZM71.301 36.2734V36.2524C71.3112 35.9677 71.264 35.6838 71.1622 35.4177C71.0604 35.1515 70.9061 34.9086 70.7085 34.7033C70.5109 34.4981 70.274 34.3346 70.0119 34.2228C69.7498 34.111 69.4679 34.0531 69.183 34.0524C68.9001 34.0511 68.6199 34.1072 68.3593 34.2172C68.0987 34.3273 67.8632 34.489 67.6669 34.6927C67.4706 34.8964 67.3176 35.1378 67.2173 35.4022C67.1169 35.6667 67.0712 35.9488 67.083 36.2314V36.2504C67.0731 36.5352 67.1205 36.8191 67.2225 37.0851C67.3244 37.3512 67.4788 37.5941 67.6765 37.7993C67.8741 38.0045 68.1111 38.1679 68.3731 38.2798C68.6352 38.3916 68.917 38.4497 69.202 38.4504C69.4846 38.4518 69.7646 38.3958 70.025 38.2858C70.2854 38.1759 70.5209 38.0143 70.7171 37.8108C70.9132 37.6073 71.0662 37.3662 71.1665 37.1019C71.2669 36.8377 71.3126 36.5559 71.301 36.2734Z" fill="white"></path><path d="M74.285 32.7539H75.944L77.783 35.7129L79.622 32.7539H81.281V39.7539H79.752V35.1869L77.783 38.1749H77.743L75.794 35.2169V39.7459H74.285V32.7539Z" fill="white"></path><path d="M82.965 32.7536H85.823C86.1624 32.7138 86.5063 32.747 86.8319 32.8509C87.1574 32.9548 87.457 33.127 87.7107 33.356C87.9643 33.585 88.1661 33.8655 88.3026 34.1788C88.439 34.4921 88.507 34.8309 88.502 35.1726V35.1916C88.502 36.8116 87.242 37.6506 85.673 37.6506H84.504V39.7506H82.965V32.7536ZM85.723 36.2816C85.8742 36.3008 86.0277 36.2878 86.1736 36.2435C86.3194 36.1993 86.4543 36.1247 86.5693 36.0248C86.6844 35.9248 86.7771 35.8017 86.8413 35.6635C86.9055 35.5252 86.9398 35.375 86.942 35.2226V35.2026C86.942 34.5126 86.463 34.1436 85.693 34.1436H84.504V36.2816H85.723Z" fill="white"></path><path d="M89.644 32.7539H91.184V38.3539H94.672V39.7539H89.644V32.7539Z" fill="white"></path><path d="M95.905 32.7539H97.444V39.7539H95.905V32.7539Z" fill="white"></path><path d="M101.592 32.7041H103.011L106.011 39.7501H104.402L103.762 38.1811H100.803L100.164 39.7501H98.592L101.592 32.7041ZM103.212 36.8221L102.282 34.5531L101.352 36.8221H103.212Z" fill="white"></path><path d="M107.092 32.7539H108.511L111.79 37.0619V32.7539H113.309V39.7539H112.002L108.614 35.3069V39.7459H107.092V32.7539Z" fill="white"></path><path d="M116.624 34.1729H114.492V32.7539H120.292V34.1729H118.163V39.7459H116.624V34.1729Z" fill="white"></path><path d="M33.301 22.6859V20.6529C33.2801 18.9901 32.6049 17.4025 31.4216 16.234C30.2384 15.0656 28.6424 14.4104 26.9795 14.4104C25.3166 14.4104 23.7206 15.0656 22.5374 16.234C21.3541 17.4025 20.6789 18.9901 20.658 20.6529V22.6869C20.1136 22.9834 19.6592 23.421 19.3424 23.9538C19.0257 24.4867 18.8583 25.095 18.858 25.7149V33.9459C18.8591 34.8603 19.2228 35.7369 19.8694 36.3835C20.5159 37.0301 21.3926 37.3938 22.307 37.3949H31.653C32.5674 37.3938 33.4441 37.0301 34.0906 36.3835C34.7372 35.7369 35.1009 34.8603 35.102 33.9459V25.7129C35.101 25.0932 34.9332 24.4851 34.6163 23.9526C34.2995 23.42 33.8451 22.9825 33.301 22.6859ZM21.91 20.6529C21.91 19.3085 22.444 18.0192 23.3947 17.0686C24.3453 16.1179 25.6346 15.5839 26.979 15.5839C28.3234 15.5839 29.6127 16.1179 30.5633 17.0686C31.5139 18.0192 32.048 19.3085 32.048 20.6529V22.2909C31.9153 22.2748 31.7817 22.2664 31.648 22.2659H31.31V20.8119C31.3187 20.2371 31.2131 19.6664 30.9991 19.1328C30.7852 18.5993 30.4674 18.1136 30.064 17.7041C29.6606 17.2946 29.1799 16.9693 28.6496 16.7474C28.1194 16.5254 27.5503 16.411 26.9755 16.411C26.4007 16.411 25.8316 16.5254 25.3014 16.7474C24.7711 16.9693 24.2904 17.2946 23.887 17.7041C23.4836 18.1136 23.1658 18.5993 22.9518 19.1328C22.7379 19.6664 22.6323 20.2371 22.641 20.8119V22.2659H22.302C22.1683 22.2665 22.0347 22.2748 21.902 22.2909L21.91 20.6529ZM30.062 22.2659H23.892V20.8119C23.8846 20.4024 23.9589 19.9956 24.1105 19.6151C24.2621 19.2347 24.488 18.8883 24.7749 18.5961C25.0619 18.3039 25.4042 18.0718 25.7819 17.9134C26.1595 17.755 26.565 17.6734 26.9745 17.6734C27.384 17.6734 27.7895 17.755 28.1671 17.9134C28.5448 18.0718 28.8871 18.3039 29.174 18.5961C29.461 18.8883 29.6869 19.2347 29.8385 19.6151C29.9901 19.9956 30.0644 20.4024 30.057 20.8119L30.062 22.2659ZM33.849 33.9479C33.849 34.5314 33.6172 35.0909 33.2046 35.5035C32.7921 35.9161 32.2325 36.1479 31.649 36.1479H22.303C21.7195 36.1479 21.1599 35.9161 20.7474 35.5035C20.3348 35.0909 20.103 34.5314 20.103 33.9479V25.7149C20.103 25.1314 20.3348 24.5718 20.7474 24.1593C21.1599 23.7467 21.7195 23.5149 22.303 23.5149H31.649C32.2325 23.5149 32.7921 23.7467 33.2046 24.1593C33.6172 24.5718 33.849 25.1314 33.849 25.7149V33.9479Z" fill="white"></path><path d="M26.979 25.835C26.482 25.8344 25.9962 25.9822 25.5838 26.2595C25.1714 26.5368 24.8512 26.931 24.6643 27.3915C24.4774 27.8519 24.4322 28.3577 24.5346 28.844C24.637 29.3303 24.8823 29.775 25.239 30.121V32.088C25.239 32.5494 25.4223 32.992 25.7486 33.3183C26.0749 33.6446 26.5175 33.828 26.979 33.828C27.4405 33.828 27.8831 33.6446 28.2094 33.3183C28.5357 32.992 28.719 32.5494 28.719 32.088V30.121C29.0757 29.775 29.321 29.3303 29.4234 28.844C29.5258 28.3577 29.4806 27.8519 29.2937 27.3915C29.1068 26.931 28.7866 26.5368 28.3742 26.2595C27.9618 25.9822 27.476 25.8344 26.979 25.835ZM27.72 29.335C27.6418 29.3929 27.5782 29.4682 27.5343 29.555C27.4904 29.6418 27.4673 29.7377 27.467 29.835V32.089C27.467 32.2184 27.4156 32.3425 27.3241 32.434C27.2326 32.5255 27.1084 32.577 26.979 32.577C26.8496 32.577 26.7254 32.5255 26.6339 32.434C26.5424 32.3425 26.491 32.2184 26.491 32.089V29.835C26.4908 29.7378 26.468 29.6419 26.4242 29.5551C26.3805 29.4683 26.3171 29.3929 26.239 29.335C26.0284 29.1791 25.8723 28.9608 25.793 28.7111C25.7136 28.4614 25.7151 28.1931 25.7971 27.9443C25.8791 27.6954 26.0376 27.4788 26.2499 27.3253C26.4622 27.1718 26.7175 27.0891 26.9795 27.0891C27.2415 27.0891 27.4968 27.1718 27.7091 27.3253C27.9214 27.4788 28.0798 27.6954 28.1619 27.9443C28.2439 28.1931 28.2454 28.4614 28.166 28.7111C28.0867 28.9608 27.9306 29.1791 27.72 29.335Z" fill="white"></path><path d="M26.979 0L27.837 2.64H30.612L28.367 4.271L29.225 6.911L26.98 5.28L24.735 6.911L25.593 4.271L23.348 2.64H26.123L26.979 0Z" fill="white"></path><path d="M38.686 3.16211L39.544 5.80211H42.319L40.074 7.43311L40.932 10.0731L38.686 8.44611L36.441 10.0771L37.299 7.43711L35.054 5.80611H37.829L38.686 3.16211Z" fill="white"></path><path d="M47.23 11.7739L48.088 14.4139H50.863L48.618 16.0459L49.476 18.6859L47.231 17.0549L44.986 18.6859L45.844 16.0459L43.599 14.4149H46.374L47.23 11.7739Z" fill="white"></path><path d="M50.325 23.4814L51.183 26.1214H53.958L51.713 27.7524L52.571 30.3924L50.326 28.7614L48.081 30.3924L48.939 27.7524L46.694 26.1214H49.469L50.325 23.4814Z" fill="white"></path><path d="M47.298 35.1865L48.156 37.8265H50.931L48.686 39.4575L49.544 42.0975L47.299 40.4665L45.054 42.0975L45.912 39.4575L43.667 37.8265H46.442L47.298 35.1865Z" fill="white"></path><path d="M38.619 43.7324L39.477 46.3724H42.252L40.007 48.0034L40.865 50.6434L38.62 49.0124L36.375 50.6434L37.233 48.0034L34.988 46.3724H37.763L38.619 43.7324Z" fill="white"></path><path d="M26.979 46.6924L27.837 49.3324H30.612L28.367 50.9634L29.225 53.6034L26.98 51.9724L24.735 53.6034L25.593 50.9634L23.348 49.3324H26.123L26.979 46.6924Z" fill="white"></path><path d="M15.34 43.7991L16.198 46.4391H18.973L16.728 48.0701L17.586 50.7101L15.341 49.0791L13.096 50.7101L13.954 48.0701L11.709 46.4391H14.484L15.34 43.7991Z" fill="white"></path><path d="M6.79199 35.2539L7.64999 37.8939H10.425L8.17999 39.5249L9.03799 42.1649L6.793 40.5339L4.54799 42.1649L5.40599 39.5249L3.161 37.8939H5.93599L6.79199 35.2539Z" fill="white"></path><path d="M3.633 23.5459L4.491 26.1859H7.26599L5.021 27.8169L5.879 30.4569L3.634 28.8259L1.38899 30.4569L2.24699 27.8169L0.0019989 26.1859H2.77699L3.633 23.5459Z" fill="white"></path><path d="M6.79199 11.7739L7.64999 14.4139H10.425L8.183 16.0459L9.041 18.6859L6.79199 17.0529L4.547 18.6839L5.405 16.0439L3.15999 14.4129H5.935L6.79199 11.7739Z" fill="white"></path><path d="M15.273 3.229L16.131 5.869H18.906L16.661 7.5L17.519 10.14L15.274 8.509L13.029 10.14L13.887 7.5L11.642 5.869H14.417L15.273 3.229Z" fill="white"></path></g><g clip-path="url(#clip1_4134_264)"><path d="M253.562 31.8243L254.889 32.2243C254.821 32.5619 254.678 32.8796 254.469 33.1533C254.286 33.397 254.042 33.5875 253.761 33.7053C253.419 33.8499 253.049 33.9182 252.678 33.9053C252.234 33.9223 251.791 33.8471 251.378 33.6843C251.015 33.5043 250.715 33.2193 250.516 32.8663C250.252 32.4186 250.121 31.9047 250.14 31.3853C250.103 30.7063 250.333 30.0397 250.781 29.5283C251.022 29.3019 251.308 29.1281 251.62 29.0178C251.932 28.9074 252.264 28.863 252.594 28.8873C253.1 28.8621 253.602 28.9934 254.031 29.2633C254.416 29.5436 254.69 29.9509 254.804 30.4133L253.478 30.7003C253.454 30.5787 253.401 30.4648 253.323 30.3683C253.241 30.2579 253.136 30.1673 253.014 30.1033C252.89 30.0427 252.752 30.0126 252.614 30.0153C252.459 30.0082 252.305 30.0435 252.169 30.1176C252.032 30.1916 251.919 30.3015 251.84 30.4353C251.688 30.7277 251.618 31.0563 251.64 31.3853C251.608 31.7681 251.693 32.1516 251.883 32.4853C251.965 32.5866 252.07 32.6673 252.189 32.7211C252.309 32.7749 252.438 32.8003 252.569 32.7953C252.687 32.8037 252.806 32.7864 252.916 32.7444C253.027 32.7024 253.127 32.6369 253.21 32.5523C253.392 32.3464 253.514 32.0946 253.562 31.8243Z" fill="white"></path><path d="M255.421 31.3842C255.387 31.0448 255.428 30.702 255.543 30.3807C255.657 30.0593 255.842 29.7674 256.083 29.5262C256.324 29.285 256.616 29.1004 256.937 28.9859C257.259 28.8714 257.602 28.8299 257.941 28.8642C258.627 28.8224 259.302 29.0527 259.82 29.5052C260.05 29.7496 260.227 30.0385 260.341 30.3541C260.455 30.6697 260.504 31.0053 260.483 31.3402C260.507 31.8214 260.408 32.3008 260.196 32.7332C260.005 33.0899 259.713 33.3821 259.356 33.5732C258.94 33.7889 258.476 33.8953 258.007 33.8822C257.536 33.8973 257.068 33.8068 256.637 33.6172C256.267 33.4291 255.96 33.1372 255.753 32.7772C255.509 32.3551 255.394 31.871 255.421 31.3842ZM256.921 31.3842C256.89 31.7576 256.984 32.1305 257.187 32.4452C257.277 32.5562 257.392 32.6442 257.522 32.7019C257.653 32.7596 257.795 32.7854 257.938 32.7772C258.078 32.7845 258.219 32.7604 258.349 32.7068C258.479 32.6532 258.595 32.5714 258.69 32.4672C258.897 32.1299 258.99 31.7346 258.955 31.3402C258.994 30.9822 258.891 30.6233 258.668 30.3402C258.575 30.2353 258.46 30.1532 258.33 30.1001C258.201 30.047 258.061 30.0245 257.921 30.0342C257.782 30.0279 257.643 30.0546 257.517 30.1121C257.39 30.1697 257.279 30.2564 257.192 30.3652C256.979 30.66 256.883 31.0228 256.921 31.3842Z" fill="white"></path><path d="M261.255 28.9512H263.221L263.973 31.9132L264.724 28.9512H266.691V33.8142H265.454V30.1002L264.503 33.8142H263.398L262.447 30.1002V33.8142H261.211V28.9512H261.255Z" fill="white"></path><path d="M267.665 28.9509H270.165C270.384 28.9327 270.605 28.9588 270.814 29.0275C271.022 29.0962 271.215 29.2062 271.381 29.3509C271.519 29.4972 271.626 29.6703 271.695 29.8595C271.764 30.0487 271.793 30.25 271.781 30.4509C271.792 30.6628 271.758 30.8746 271.682 31.0726C271.605 31.2705 271.488 31.4502 271.338 31.5999C270.961 31.9119 270.477 32.0628 269.99 32.0199H269.172V33.8329H267.672V28.9509H267.665ZM269.165 31.0289H269.541C269.759 31.0502 269.978 30.9954 270.16 30.8739C270.214 30.8272 270.258 30.7696 270.289 30.7048C270.319 30.64 270.336 30.5695 270.337 30.4979C270.34 30.4242 270.328 30.3505 270.302 30.2816C270.275 30.2128 270.234 30.1502 270.182 30.0979C270.018 29.9725 269.812 29.9168 269.607 29.9429H269.187V31.0269L269.165 31.0289Z" fill="white"></path><path d="M272.572 28.9512H274.072V32.6202H276.421V33.8142H272.574V28.9512H272.572Z" fill="white"></path><path d="M277.17 28.9512H278.67V33.8142H277.17V28.9512Z" fill="white"></path><path d="M282.74 32.9966H281.04L280.797 33.7966H279.272L281.107 28.9336H282.742L284.577 33.7966H283.008L282.74 32.9966ZM282.431 31.9576L281.9 30.2116L281.37 31.9576H282.431Z" fill="white"></path><path d="M285.039 28.9512H286.432L288.267 31.6512V28.9512H289.681V33.8142H288.267L286.454 31.1392V33.8142H285.039V28.9512Z" fill="white"></path><path d="M290.344 28.9512H294.921V30.1442H293.396V33.8142H291.896V30.1442H290.371V28.9512H290.344Z" fill="white"></path><path d="M238.421 31.8459C237.33 33.2739 236.347 34.7814 235.481 36.3559L239.835 34.9839L238.421 31.8459Z" fill="white"></path><path d="M184.421 23.0596H182.561V28.3426H184.639C185.272 28.3154 185.878 28.0789 186.362 27.67C186.847 27.2612 187.181 26.7032 187.314 26.0836C187.358 25.7239 187.358 25.3602 187.314 25.0006C187.093 23.1696 184.421 23.0596 184.421 23.0596Z" fill="white"></path><path d="M163 6.53691L180.308 53.7519L213.621 43.2519C212.713 42.0016 212.078 40.5744 211.758 39.0629H211.721C211.5 39.0629 209.268 39.1509 208.121 39.0629C196.421 38.3339 196.421 30.0009 196.421 29.7569V27.7679C196.421 27.4139 196.841 19.2579 208.114 18.3519C209.312 18.2506 210.516 18.2506 211.714 18.3519C214.814 18.5279 215.826 19.1909 215.826 19.1909C215.857 19.2095 215.883 19.2352 215.903 19.266C215.922 19.2968 215.933 19.3318 215.936 19.3679V24.4969C215.936 24.5629 215.892 24.5849 215.826 24.5629C214.576 23.8504 213.204 23.378 211.781 23.1699H209.861C204.754 23.6119 204.401 27.7019 204.401 27.7019C204.382 27.7739 204.374 27.8485 204.379 27.9229V29.3839C204.379 29.4279 204.401 29.5379 204.401 29.6049C204.401 29.6049 204.644 33.4049 209.861 34.2909C210.499 34.3852 211.146 34.3852 211.784 34.2909C215.453 33.9149 216.293 33.2519 216.293 33.2519C216.337 33.2079 216.381 33.2299 216.381 33.2959V34.1439C217.559 34.3793 218.674 34.8615 219.653 35.5589V18.6589H227.39V31.2839C230.124 27.3509 233.03 23.3379 234 22.0139L225.467 3.00391L163 6.53691ZM182.8 32.8299C182.785 32.8281 182.77 32.8298 182.756 32.8348C182.741 32.8397 182.728 32.8478 182.718 32.8585C182.707 32.8692 182.699 32.8822 182.694 32.8964C182.689 32.9107 182.687 32.9259 182.689 32.9409V38.8199C182.691 38.8349 182.689 38.8501 182.684 38.8644C182.679 38.8787 182.671 38.8916 182.66 38.9023C182.65 38.913 182.637 38.9211 182.622 38.9261C182.608 38.931 182.593 38.9327 182.578 38.9309H175.046C175.031 38.9327 175.016 38.931 175.002 38.9261C174.987 38.9211 174.974 38.913 174.964 38.9023C174.953 38.8916 174.945 38.8787 174.94 38.8644C174.935 38.8501 174.933 38.8349 174.935 38.8199V18.7709C174.933 18.756 174.935 18.7409 174.94 18.7267C174.945 18.7126 174.953 18.6998 174.964 18.6892C174.975 18.6786 174.988 18.6706 175.002 18.6657C175.016 18.6608 175.031 18.6592 175.046 18.6609H184.821C187.297 18.5499 194.857 19.2359 194.857 25.6239C194.852 33.6919 182.805 32.8299 182.805 32.8299H182.8ZM228.252 12.2729C228.307 13.22 228.076 14.1617 227.589 14.9761C227.103 15.7905 226.383 16.4401 225.523 16.8407C224.663 17.2413 223.702 17.3746 222.766 17.2232C221.829 17.0718 220.96 16.6428 220.27 15.9916C219.58 15.3405 219.101 14.4972 218.896 13.571C218.691 12.6448 218.768 11.6783 219.119 10.7966C219.469 9.91497 220.076 9.15876 220.861 8.6259C221.646 8.09304 222.572 7.80808 223.521 7.80791C224.74 7.77265 225.924 8.22326 226.811 9.06061C227.698 9.89795 228.217 11.0534 228.252 12.2729Z" fill="white"></path><path d="M223.743 48.6459C224.396 48.686 225.048 48.5644 225.643 48.2919C228.384 46.8549 237.643 24.2419 247.416 17.2799C247.485 17.2324 247.546 17.1724 247.593 17.1029C247.632 17.0517 247.655 16.9901 247.659 16.9259C247.659 16.9259 247.659 16.4619 246.223 16.4619C237.535 16.2179 228.495 34.4549 223.742 41.6619C223.676 41.7499 223.366 41.6619 223.366 41.6619C223.366 41.6619 220.183 37.9039 217.42 36.4669C217.193 36.3858 216.954 36.3485 216.713 36.3569C215.942 36.4423 215.213 36.7493 214.613 37.2409C214.339 37.5058 214.133 37.8334 214.014 38.1954C213.895 38.5574 213.865 38.9429 213.928 39.3189C213.94 39.5021 213.985 39.6816 214.06 39.8489C215.867 42.6665 217.98 45.276 220.36 47.6299C220.737 47.9169 221.334 48.6459 223.743 48.6459Z" fill="white"></path><path d="M249.981 10.449H257.21C258.386 10.4066 259.559 10.6022 260.658 11.024C261.504 11.3914 262.247 11.9615 262.821 12.684C263.407 13.4274 263.829 14.2862 264.059 15.204C264.331 16.1978 264.465 17.2239 264.459 18.254C264.511 19.5827 264.316 20.9095 263.884 22.167C263.533 23.0556 262.989 23.8557 262.293 24.51C261.67 25.0931 260.921 25.5244 260.104 25.77C259.162 26.0363 258.188 26.1775 257.209 26.19H249.981V10.449ZM254.844 14.008V22.608H256.038C256.776 22.657 257.515 22.5437 258.204 22.276C258.666 22.0122 259.025 21.5989 259.221 21.104C259.518 20.2221 259.645 19.2922 259.597 18.363C259.728 17.1605 259.439 15.9497 258.779 14.936C258.419 14.5953 257.99 14.3361 257.521 14.1759C257.051 14.0158 256.553 13.9585 256.06 14.008H254.844Z" fill="white"></path><path d="M265.808 20.993L270.45 20.706C270.507 21.3237 270.72 21.9168 271.069 22.43C271.325 22.7475 271.653 22.9993 272.026 23.1645C272.399 23.3297 272.806 23.4036 273.213 23.38C273.792 23.42 274.366 23.2471 274.827 22.894C275.002 22.7669 275.145 22.601 275.245 22.4092C275.345 22.2175 275.4 22.0052 275.404 21.7889C275.408 21.5727 275.362 21.3584 275.27 21.1629C275.177 20.9674 275.041 20.7959 274.871 20.662C274.114 20.1798 273.261 19.8701 272.371 19.755C270.717 19.4798 269.15 18.8212 267.796 17.832C267.351 17.461 266.996 16.9936 266.759 16.4651C266.521 15.9367 266.407 15.3611 266.425 14.782C266.431 13.9626 266.677 13.1628 267.133 12.482C267.653 11.7145 268.393 11.1219 269.255 10.782C270.489 10.316 271.805 10.1054 273.123 10.163C274.736 10.0559 276.342 10.4495 277.723 11.29C278.276 11.7162 278.73 12.2569 279.054 12.8749C279.379 13.493 279.565 14.174 279.602 14.871L275.002 15.136C274.936 14.5437 274.663 13.9938 274.23 13.584C273.768 13.2342 273.195 13.0618 272.617 13.098C272.161 13.0602 271.706 13.1853 271.334 13.451C271.2 13.556 271.093 13.6906 271.02 13.8442C270.947 13.9977 270.911 14.1661 270.914 14.336C270.917 14.4696 270.951 14.6007 271.012 14.7193C271.073 14.838 271.161 14.9412 271.268 15.021C271.766 15.3283 272.324 15.5244 272.904 15.596C274.477 15.887 276.012 16.3539 277.48 16.988C278.302 17.3687 278.999 17.974 279.491 18.734C279.912 19.4425 280.126 20.2543 280.11 21.078C280.114 22.0693 279.821 23.0392 279.27 23.863C278.7 24.7299 277.884 25.4071 276.927 25.808C275.719 26.2877 274.426 26.5133 273.127 26.471C270.452 26.471 268.595 25.963 267.557 24.924C266.53 23.86 265.911 22.4682 265.808 20.993Z" fill="white"></path><path d="M281.348 20.9928L285.99 20.7058C286.047 21.3237 286.26 21.917 286.609 22.4298C286.865 22.7474 287.193 22.9993 287.566 23.1645C287.939 23.3297 288.346 23.4036 288.753 23.3798C289.332 23.4196 289.906 23.2468 290.367 22.8938C290.542 22.7667 290.685 22.6007 290.785 22.409C290.885 22.2173 290.94 22.005 290.944 21.7887C290.948 21.5725 290.902 21.3582 290.81 21.1627C290.717 20.9672 290.581 20.7957 290.411 20.6618C289.654 20.1799 288.801 19.8703 287.911 19.7548C286.257 19.4793 284.69 18.8208 283.335 17.8318C282.894 17.4574 282.542 16.9893 282.305 16.4616C282.068 15.934 281.952 15.3601 281.965 14.7818C281.971 13.9625 282.217 13.1629 282.672 12.4818C283.192 11.7146 283.932 11.1222 284.794 10.7818C286.028 10.3159 287.344 10.1054 288.662 10.1628C290.275 10.0555 291.881 10.4492 293.262 11.2898C293.815 11.716 294.269 12.2566 294.593 12.8747C294.918 13.4928 295.104 14.1737 295.141 14.8708L290.541 15.1358C290.476 14.5434 290.203 13.9934 289.77 13.5838C289.307 13.234 288.735 13.0616 288.156 13.0978C287.7 13.0598 287.246 13.1849 286.874 13.4508C286.74 13.5558 286.633 13.6904 286.56 13.844C286.487 13.9975 286.451 14.1659 286.454 14.3358C286.457 14.4694 286.491 14.6005 286.552 14.7191C286.613 14.8378 286.701 14.941 286.808 15.0208C287.305 15.3281 287.863 15.5243 288.443 15.5958C290.016 15.8866 291.551 16.3536 293.019 16.9878C293.841 17.3686 294.538 17.9738 295.031 18.7338C295.452 19.4423 295.666 20.2541 295.65 21.0778C295.654 22.0691 295.361 23.0388 294.81 23.8628C294.239 24.7297 293.423 25.4069 292.466 25.8078C291.258 26.2876 289.965 26.5133 288.666 26.4708C285.992 26.4708 284.135 25.9628 283.096 24.9238C282.052 23.8714 281.43 22.4728 281.348 20.9928Z" fill="white"></path></g><g clip-path="url(#clip2_4134_264)"><path d="M391.905 27.2203L394.193 24.4793C395.629 25.8044 397.496 26.564 399.449 26.6173C401.033 26.6173 401.988 25.9883 401.988 24.9573V24.9073C401.988 23.9263 401.388 23.4233 398.443 22.6693C394.897 21.7633 392.609 20.7833 392.609 17.2883V17.2373C392.609 14.0443 395.174 11.9313 398.769 11.9313C401.143 11.8929 403.456 12.6848 405.308 14.1703L403.296 17.0873C401.981 16.0594 400.386 15.4541 398.72 15.3513C397.236 15.3513 396.456 16.0303 396.456 16.8853V16.9353C396.456 18.0923 397.211 18.4693 400.256 19.2493C403.826 20.1793 405.838 21.4623 405.838 24.5303V24.5803C405.838 28.0753 403.173 30.0373 399.375 30.0373C396.624 30.0477 393.964 29.045 391.905 27.2203Z" fill="white"></path><path d="M407.743 27.2203L410.031 24.4793C411.467 25.8044 413.334 26.564 415.287 26.6173C416.871 26.6173 417.826 25.9883 417.826 24.9573V24.9073C417.826 23.9263 417.226 23.4233 414.281 22.6693C410.735 21.7633 408.447 20.7833 408.447 17.2883V17.2373C408.447 14.0443 411.012 11.9313 414.607 11.9313C416.981 11.8927 419.293 12.6846 421.145 14.1703L419.134 17.0873C417.819 16.0594 416.224 15.4541 414.558 15.3513C413.074 15.3513 412.294 16.0303 412.294 16.8853V16.9353C412.294 18.0923 413.049 18.4693 416.094 19.2493C419.664 20.1793 421.676 21.4623 421.676 24.5303V24.5803C421.676 28.0753 419.011 30.0373 415.213 30.0373C412.462 30.0477 409.802 29.045 407.743 27.2203Z" fill="white"></path><path d="M425.04 12.1833H428.913V26.2654H437.688V29.7854H425.04V12.1833Z" fill="white"></path><path d="M391.428 38.6989L392.308 37.6449C392.86 38.1547 393.578 38.4468 394.329 38.4669C394.938 38.4669 395.306 38.2249 395.306 37.8289V37.8089C395.306 37.4319 395.074 37.2389 393.942 36.9489C392.579 36.6009 391.698 36.2229 391.698 34.8789V34.8599C391.707 34.5657 391.776 34.2766 391.903 34.0109C392.029 33.7452 392.21 33.5088 392.433 33.3168C392.656 33.1248 392.916 32.9813 393.198 32.8956C393.48 32.8099 393.776 32.7837 394.068 32.8189C394.981 32.8042 395.87 33.1087 396.582 33.6799L395.809 34.8019C395.303 34.4064 394.689 34.1735 394.048 34.1339C393.478 34.1339 393.178 34.3949 393.178 34.7239V34.7439C393.178 35.1879 393.468 35.3339 394.639 35.6329C396.011 35.9909 396.785 36.4839 396.785 37.6639V37.6839C396.785 39.0279 395.76 39.7839 394.3 39.7839C393.242 39.7872 392.22 39.401 391.428 38.6989Z" fill="white"></path><path d="M398.089 32.916H403.195V34.242H399.568V35.615H402.759V36.942H399.568V38.364H403.244V39.689H398.089V32.916Z" fill="white"></path><path d="M404.272 36.3202V36.3012C404.264 35.8368 404.35 35.3755 404.524 34.9451C404.699 34.5148 404.96 34.1243 405.289 33.7972C405.619 33.4702 406.012 33.2133 406.444 33.0421C406.876 32.871 407.338 32.789 407.802 32.8012C408.295 32.7766 408.788 32.8568 409.249 33.0368C409.709 33.2168 410.125 33.4923 410.471 33.8452L409.524 34.9382C409.069 34.4664 408.447 34.192 407.792 34.1742C407.523 34.1796 407.259 34.239 407.013 34.3486C406.768 34.4583 406.547 34.6162 406.364 34.8128C406.181 35.0094 406.04 35.2408 405.948 35.4932C405.856 35.7456 405.815 36.0139 405.829 36.2822V36.3022C405.813 36.5719 405.852 36.842 405.943 37.0963C406.034 37.3507 406.176 37.5841 406.359 37.7826C406.542 37.9811 406.763 38.1407 407.01 38.2518C407.256 38.3629 407.522 38.4232 407.792 38.4292C408.127 38.4263 408.458 38.3543 408.764 38.2179C409.071 38.0815 409.346 37.8835 409.572 37.6362L410.52 38.5942C410.179 38.9928 409.752 39.3087 409.271 39.5181C408.79 39.7275 408.268 39.825 407.744 39.8032C407.285 39.8106 406.829 39.7254 406.404 39.5528C405.979 39.3803 405.593 39.1238 405.269 38.7987C404.945 38.4737 404.689 38.0867 404.518 37.6609C404.347 37.2351 404.263 36.7791 404.272 36.3202Z" fill="white"></path><path d="M411.607 36.784V32.916H413.096V36.742C413.096 37.842 413.648 38.414 414.556 38.414C415.464 38.414 416.017 37.863 416.017 36.79V32.916H417.506V36.736C417.558 37.1421 417.517 37.5546 417.388 37.9429C417.258 38.3312 417.043 38.6853 416.757 38.9789C416.472 39.2725 416.124 39.498 415.74 39.6388C415.356 39.7796 414.944 39.8319 414.537 39.792C414.136 39.8316 413.73 39.7804 413.352 39.642C412.973 39.5037 412.63 39.2818 412.348 38.9929C412.067 38.7039 411.854 38.3554 411.726 37.973C411.597 37.5906 411.557 37.1842 411.607 36.784Z" fill="white"></path><path d="M419.028 32.9162H422.128C422.486 32.8937 422.845 32.9429 423.184 33.0606C423.522 33.1784 423.834 33.3625 424.101 33.6022C424.296 33.8084 424.448 34.0517 424.548 34.3175C424.647 34.5834 424.692 34.8665 424.681 35.1502V35.1692C424.703 35.63 424.573 36.0854 424.311 36.4649C424.049 36.8445 423.669 37.1271 423.23 37.2692L424.884 39.6872H423.138L421.688 37.5202H420.517V39.6872H419.028V32.9162ZM422.028 36.2042C422.753 36.2042 423.169 35.8172 423.169 35.2472V35.2272C423.169 34.5892 422.724 34.2602 421.999 34.2602H420.519V36.2042H422.028Z" fill="white"></path><path d="M426.028 32.916H431.128V34.242H427.502V35.615H430.692V36.942H427.502V38.364H431.177V39.689H426.028V32.916Z" fill="white"></path><path d="M432.507 32.9158H435.147C435.608 32.8848 436.07 32.9489 436.506 33.104C436.941 33.259 437.339 33.5019 437.677 33.8173C438.014 34.1328 438.284 34.5142 438.468 34.938C438.652 35.3617 438.747 35.8188 438.747 36.2808V36.3008C438.747 36.7638 438.653 37.222 438.469 37.6471C438.286 38.0722 438.017 38.4551 437.68 38.7723C437.342 39.0895 436.943 39.3342 436.508 39.4913C436.072 39.6484 435.609 39.7146 435.147 39.6858H432.507V32.9158ZM435.147 38.3408C435.417 38.3568 435.688 38.3157 435.942 38.2201C436.195 38.1245 436.426 37.9766 436.619 37.7859C436.811 37.5952 436.961 37.3661 437.059 37.1135C437.158 36.8609 437.201 36.5904 437.188 36.3198V36.3008C437.202 36.0291 437.159 35.7575 437.061 35.5035C436.963 35.2496 436.813 35.019 436.621 34.8266C436.429 34.6342 436.198 34.4844 435.944 34.3867C435.69 34.2891 435.419 34.2459 435.147 34.2598H433.996V38.3418L435.147 38.3408Z" fill="white"></path><path d="M339 27.6243C339 43.1133 354.1 50.9753 360.584 53.6363L360.809 53.7303C361.045 53.8461 361.304 53.9063 361.566 53.9063C361.829 53.9063 362.088 53.8461 362.324 53.7303L362.549 53.6363C369.038 50.9753 384.128 43.1133 384.128 27.6243V6.88626C384.128 6.50342 384 6.13158 383.764 5.82975C383.529 5.52792 383.199 5.31341 382.828 5.22026L361.979 0.0502632C361.707 -0.0167544 361.424 -0.0167544 361.152 0.0502632L340.303 5.22026C339.932 5.31341 339.602 5.52792 339.367 5.82975C339.131 6.13158 339.003 6.50342 339.003 6.88626L339 27.6243ZM380.703 27.6243C380.703 40.7963 367.58 47.8093 361.57 50.3243C355.56 47.8063 342.437 40.7923 342.437 27.6243V8.22926L361.57 3.48426L380.703 8.22926V27.6243Z" fill="white"></path><path d="M361.501 10.3792C359.654 10.3799 357.882 11.1135 356.575 12.4188C355.268 13.7242 354.531 15.4948 354.528 17.3422V19.0582C353.877 19.1636 353.285 19.4969 352.857 19.9986C352.429 20.5003 352.193 21.1377 352.191 21.7971V33.9851C352.192 34.7234 352.486 35.431 353.008 35.9529C353.53 36.4748 354.238 36.7684 354.976 36.7691H368.149C368.887 36.7684 369.595 36.4748 370.117 35.9529C370.639 35.4309 370.932 34.7233 370.933 33.9851V21.8022C370.931 21.1206 370.679 20.4636 370.224 19.9562C369.769 19.4487 369.143 19.1262 368.466 19.0502V17.3422C368.463 15.4962 367.728 13.7268 366.422 12.4217C365.117 11.1165 363.347 10.3821 361.501 10.3792ZM361.501 13.4152C362.544 13.4162 363.543 13.8308 364.281 14.5679C365.018 15.305 365.433 16.3046 365.434 17.3472V19.0182H357.568V17.3422C357.571 16.3004 357.986 15.3022 358.723 14.5661C359.46 13.8301 360.459 13.4162 361.501 13.4152ZM367.901 33.7332H355.228V22.0541H367.898L367.901 33.7332ZM363.971 24.1122L366.071 26.2122L362.886 29.3972L360.786 31.4972L358.686 29.3972L357.061 27.7722L359.161 25.6721L360.785 27.2971L363.971 24.1122Z" fill="white"></path></g><defs><clipPath id="clip0_4134_264"><rect width="120.292" height="53.603" fill="white"></rect></clipPath><clipPath id="clip1_4134_264"><rect width="132.65" height="50.752" fill="white" transform="translate(163 3)"></rect></clipPath><clipPath id="clip2_4134_264"><rect width="99.745" height="53.906" fill="white" transform="translate(339)"></rect></clipPath></defs></svg> 