<svg xmlns="http://www.w3.org/2000/svg" xmlns:xlink="http://www.w3.org/1999/xlink" width="74" zoomAndPan="magnify" viewBox="0 0 55.5 60.749998" height="81" preserveAspectRatio="xMidYMid meet" version="1.0"><defs><clipPath id="d510369212"><path d="M 0 0.148438 L 55.003906 0.148438 L 55.003906 60.355469 L 0 60.355469 Z M 0 0.148438 " clip-rule="nonzero"/></clipPath><clipPath id="19db3d757c"><path d="M 0 29 L 55.003906 29 L 55.003906 60.355469 L 0 60.355469 Z M 0 29 " clip-rule="nonzero"/></clipPath><clipPath id="4469d75b3f"><path d="M 17 1.046875 L 53 1.046875 L 53 38 L 17 38 Z M 17 1.046875 " clip-rule="nonzero"/></clipPath></defs><g clip-path="url(#d510369212)"><path fill="#ffffff" d="M 0 0.148438 L 55.003906 0.148438 L 55.003906 60.355469 L 0 60.355469 Z M 0 0.148438 " fill-opacity="1" fill-rule="nonzero"/><path fill="#ffffff" d="M 0 0.148438 L 55.003906 0.148438 L 55.003906 60.355469 L 0 60.355469 Z M 0 0.148438 " fill-opacity="1" fill-rule="nonzero"/></g><g clip-path="url(#19db3d757c)"><path fill="#17a3fe" d="M 0.925781 54.765625 C 0.417969 54.765625 0 55.183594 0 55.691406 C 0 56.199219 0.417969 56.617188 0.925781 56.617188 L 7.351562 56.617188 C 8.371094 56.617188 9.25 55.785156 9.25 54.765625 L 9.25 52.5 C 9.710938 52.546875 10.171875 52.730469 10.683594 52.871094 L 30.566406 60.132812 C 30.566406 60.132812 30.613281 60.132812 30.613281 60.132812 C 30.9375 60.222656 31.214844 60.269531 31.539062 60.269531 C 32.324219 60.269531 33.109375 59.992188 33.757812 59.4375 L 55.539062 41.308594 C 57.527344 39.597656 57.894531 36.5 56.371094 34.464844 C 55.585938 33.402344 54.429688 32.753906 53.132812 32.617188 C 51.839844 32.476562 50.589844 32.894531 49.617188 33.726562 L 38.9375 43.019531 C 39.121094 43.578125 39.214844 44.175781 39.214844 44.824219 C 39.214844 44.964844 39.214844 45.101562 39.167969 45.289062 L 50.820312 35.253906 C 51.421875 34.742188 52.164062 34.511719 52.949219 34.605469 C 53.734375 34.699219 54.429688 35.066406 54.890625 35.714844 C 55.863281 37.007812 55.628906 38.953125 54.335938 40.015625 L 32.554688 58.144531 C 32.183594 58.464844 31.628906 58.605469 31.167969 58.464844 L 11.515625 51.296875 L 11.285156 51.207031 C 10.683594 51.019531 9.988281 50.789062 9.25 50.699219 L 9.25 36.363281 L 11.421875 35.019531 C 11.515625 34.976562 11.5625 34.976562 11.652344 34.929688 C 11.699219 34.929688 11.699219 34.929688 11.746094 34.882812 C 11.839844 34.835938 11.882812 34.835938 11.976562 34.789062 C 11.976562 34.789062 12.023438 34.789062 12.023438 34.789062 C 12.070312 34.789062 12.117188 34.742188 12.160156 34.742188 C 12.207031 34.742188 12.207031 34.742188 12.253906 34.699219 C 12.300781 34.699219 12.300781 34.699219 12.347656 34.699219 C 12.394531 34.699219 12.4375 34.699219 12.484375 34.699219 C 12.484375 34.699219 12.484375 34.699219 12.53125 34.699219 C 12.671875 34.699219 12.761719 34.699219 12.855469 34.699219 C 12.855469 34.699219 12.902344 34.699219 12.902344 34.699219 C 12.949219 34.699219 12.949219 34.699219 12.996094 34.699219 C 13.039062 34.699219 13.085938 34.699219 13.132812 34.742188 L 31.769531 41.125 C 31.816406 41.125 31.816406 41.125 31.863281 41.171875 C 33.617188 41.542969 35.46875 43.160156 35.46875 44.871094 C 35.46875 45.886719 35.050781 46.90625 34.265625 47.554688 C 33.574219 48.152344 32.695312 48.433594 31.816406 48.339844 L 20.300781 44.730469 C 19.792969 44.59375 19.285156 44.871094 19.144531 45.332031 C 19.007812 45.84375 19.285156 46.351562 19.746094 46.488281 L 31.351562 50.144531 C 31.398438 50.144531 31.445312 50.1875 31.492188 50.1875 C 31.722656 50.234375 31.953125 50.234375 32.183594 50.234375 C 33.386719 50.234375 34.589844 49.773438 35.515625 48.988281 C 36.671875 47.96875 37.363281 46.488281 37.363281 44.917969 C 37.363281 42.1875 34.820312 39.96875 32.371094 39.414062 L 13.6875 32.894531 C 13.640625 32.894531 13.59375 32.847656 13.550781 32.847656 C 12.949219 32.753906 12.347656 32.710938 11.421875 32.988281 C 11.191406 33.078125 10.914062 33.171875 10.636719 33.308594 C 10.589844 33.308594 10.589844 33.355469 10.542969 33.355469 L 9.25 34.144531 L 9.25 31.644531 C 9.25 30.628906 8.417969 29.796875 7.351562 29.796875 L 0.925781 29.796875 C 0.417969 29.796875 0 30.210938 0 30.71875 C 0 31.230469 0.417969 31.644531 0.925781 31.644531 L 7.398438 31.644531 L 7.351562 54.765625 Z M 0.925781 54.765625 " fill-opacity="1" fill-rule="nonzero"/></g><g clip-path="url(#4469d75b3f)"><path fill="#17a3fe" d="M 52.300781 13.5625 C 51.886719 12.269531 50.496094 11.714844 49.296875 11.207031 C 48.554688 10.882812 47.769531 10.558594 47.492188 10.1875 C 47.214844 9.773438 47.121094 8.894531 47.074219 8.109375 C 46.984375 6.8125 46.84375 5.332031 45.78125 4.546875 C 44.71875 3.761719 43.285156 4.085938 42.035156 4.410156 C 41.25 4.59375 40.371094 4.777344 39.90625 4.640625 C 39.492188 4.5 38.890625 3.851562 38.382812 3.253906 C 37.503906 2.234375 36.484375 1.125 35.144531 1.125 C 33.804688 1.125 32.785156 2.234375 31.953125 3.253906 C 31.445312 3.851562 30.890625 4.5 30.429688 4.640625 C 29.964844 4.777344 29.085938 4.59375 28.300781 4.410156 C 27.050781 4.128906 25.617188 3.808594 24.554688 4.546875 C 23.492188 5.332031 23.351562 6.8125 23.261719 8.109375 C 23.214844 8.894531 23.121094 9.773438 22.84375 10.1875 C 22.566406 10.558594 21.734375 10.929688 21.039062 11.207031 C 19.839844 11.714844 18.449219 12.269531 18.035156 13.5625 C 17.617188 14.8125 18.40625 16.015625 19.050781 17.125 C 19.421875 17.863281 19.882812 18.652344 19.882812 19.160156 C 19.882812 19.667969 19.421875 20.453125 19.007812 21.148438 C 18.359375 22.257812 17.617188 23.507812 17.988281 24.710938 C 18.40625 26.003906 19.792969 26.558594 20.996094 27.066406 C 21.734375 27.390625 22.519531 27.714844 22.796875 28.085938 C 23.074219 28.5 23.167969 29.378906 23.214844 30.164062 C 23.304688 31.460938 23.445312 32.941406 24.507812 33.726562 C 25.574219 34.511719 27.007812 34.1875 28.253906 33.863281 C 29.039062 33.679688 29.917969 33.496094 30.382812 33.632812 C 30.796875 33.773438 31.398438 34.421875 31.90625 35.019531 C 32.785156 36.039062 33.757812 37.148438 35.097656 37.148438 C 36.441406 37.148438 37.457031 36.039062 38.289062 35.019531 C 38.796875 34.421875 39.351562 33.773438 39.816406 33.632812 C 40.277344 33.496094 41.15625 33.679688 41.941406 33.863281 C 43.191406 34.144531 44.625 34.464844 45.6875 33.726562 C 46.75 32.941406 46.890625 31.460938 46.984375 30.164062 C 47.027344 29.378906 47.121094 28.5 47.398438 28.085938 C 47.675781 27.714844 48.507812 27.34375 49.203125 27.066406 C 50.40625 26.558594 51.792969 26.003906 52.207031 24.710938 C 52.625 23.460938 51.839844 22.257812 51.191406 21.148438 C 50.773438 20.410156 50.3125 19.667969 50.3125 19.160156 C 50.3125 18.652344 50.773438 17.863281 51.191406 17.171875 C 51.929688 16.0625 52.71875 14.8125 52.300781 13.5625 Z M 49.710938 16.199219 C 49.15625 17.125 48.554688 18.140625 48.554688 19.160156 C 48.554688 20.175781 49.15625 21.148438 49.710938 22.121094 C 50.128906 22.859375 50.683594 23.738281 50.542969 24.152344 C 50.40625 24.617188 49.433594 25.03125 48.601562 25.402344 C 47.628906 25.820312 46.566406 26.234375 46.011719 27.066406 C 45.410156 27.898438 45.316406 29.007812 45.226562 30.074219 C 45.132812 31 45.039062 32.015625 44.671875 32.292969 C 44.300781 32.570312 43.238281 32.339844 42.40625 32.152344 C 41.339844 31.921875 40.230469 31.644531 39.261719 31.96875 C 38.335938 32.292969 37.59375 33.078125 36.902344 33.910156 C 36.347656 34.558594 35.652344 35.34375 35.144531 35.34375 C 34.636719 35.34375 33.941406 34.558594 33.339844 33.863281 C 32.648438 33.03125 31.90625 32.199219 30.984375 31.921875 C 30.660156 31.832031 30.335938 31.785156 29.964844 31.785156 C 29.273438 31.785156 28.53125 31.96875 27.839844 32.109375 C 27.007812 32.292969 25.988281 32.523438 25.574219 32.246094 C 25.203125 31.96875 25.109375 30.953125 25.015625 30.027344 C 24.925781 28.964844 24.832031 27.855469 24.230469 27.019531 C 23.628906 26.234375 22.613281 25.773438 21.640625 25.355469 C 20.808594 24.988281 19.839844 24.617188 19.699219 24.109375 C 19.5625 23.691406 20.117188 22.765625 20.53125 22.074219 C 21.085938 21.148438 21.6875 20.132812 21.6875 19.113281 C 21.6875 18.097656 21.085938 17.125 20.53125 16.152344 C 20.117188 15.414062 19.5625 14.535156 19.699219 14.121094 C 19.839844 13.65625 20.808594 13.242188 21.640625 12.871094 C 22.613281 12.453125 23.675781 12.039062 24.230469 11.207031 C 24.832031 10.375 24.925781 9.265625 25.015625 8.199219 C 25.109375 7.273438 25.203125 6.257812 25.574219 5.980469 C 25.941406 5.703125 27.007812 5.933594 27.839844 6.121094 C 28.902344 6.351562 30.011719 6.628906 30.984375 6.304688 C 31.90625 5.980469 32.648438 5.195312 33.339844 4.363281 C 33.941406 3.761719 34.636719 2.976562 35.144531 2.976562 C 35.652344 2.976562 36.347656 3.761719 36.949219 4.453125 C 37.640625 5.285156 38.382812 6.121094 39.308594 6.398438 C 40.277344 6.71875 41.386719 6.441406 42.453125 6.210938 C 43.285156 6.027344 44.300781 5.796875 44.71875 6.074219 C 45.085938 6.351562 45.179688 7.367188 45.273438 8.292969 C 45.363281 9.355469 45.457031 10.464844 46.058594 11.296875 C 46.660156 12.085938 47.675781 12.546875 48.648438 12.964844 C 49.480469 13.332031 50.453125 13.703125 50.589844 14.210938 C 50.683594 14.582031 50.128906 15.460938 49.710938 16.199219 Z M 49.710938 16.199219 " fill-opacity="1" fill-rule="nonzero"/></g><path fill="#17a3fe" d="M 35.144531 6.675781 C 28.253906 6.675781 22.660156 12.269531 22.660156 19.160156 C 22.660156 26.050781 28.253906 31.644531 35.144531 31.644531 C 42.035156 31.644531 47.628906 26.050781 47.628906 19.160156 C 47.628906 12.269531 42.035156 6.675781 35.144531 6.675781 Z M 35.144531 29.796875 C 29.273438 29.796875 24.507812 25.03125 24.507812 19.160156 C 24.507812 13.285156 29.273438 8.523438 35.144531 8.523438 C 41.019531 8.523438 45.78125 13.285156 45.78125 19.160156 C 45.78125 25.03125 41.019531 29.796875 35.144531 29.796875 Z M 35.144531 29.796875 " fill-opacity="1" fill-rule="nonzero"/><path fill="#17a3fe" d="M 40.507812 14.351562 L 32.832031 22.027344 L 29.78125 18.976562 C 29.410156 18.605469 28.855469 18.605469 28.484375 18.976562 C 28.117188 19.34375 28.117188 19.898438 28.484375 20.269531 L 32.183594 23.96875 C 32.371094 24.152344 32.601562 24.246094 32.832031 24.246094 C 33.0625 24.246094 33.296875 24.152344 33.480469 23.96875 L 41.804688 15.644531 C 42.171875 15.277344 42.171875 14.71875 41.804688 14.351562 C 41.433594 13.980469 40.878906 13.980469 40.507812 14.351562 Z M 40.507812 14.351562 " fill-opacity="1" fill-rule="nonzero"/></svg>