<svg xmlns="http://www.w3.org/2000/svg" xmlns:xlink="http://www.w3.org/1999/xlink" width="74" zoomAndPan="magnify" viewBox="0 0 55.5 60.749998" height="81" preserveAspectRatio="xMidYMid meet" version="1.0"><defs><clipPath id="6f9ca2c6ad"><path d="M 0 0.148438 L 55.003906 0.148438 L 55.003906 60.355469 L 0 60.355469 Z M 0 0.148438 " clip-rule="nonzero"/></clipPath><clipPath id="4ec9d674b5"><path d="M 0 0.148438 L 55.003906 0.148438 L 55.003906 60.355469 L 0 60.355469 Z M 0 0.148438 " clip-rule="nonzero"/></clipPath><clipPath id="8ba3bcb9db"><path d="M 1.109375 46.171875 C 1.199219 46.320312 1.15625 46.515625 1.007812 46.605469 C 0.957031 46.636719 0.898438 46.652344 0.839844 46.652344 C 0.734375 46.652344 0.632812 46.601562 0.574219 46.503906 C -0.171875 45.308594 -0.839844 44.046875 -1.410156 42.757812 C -1.480469 42.601562 -1.40625 42.414062 -1.25 42.34375 C -1.089844 42.273438 -0.902344 42.34375 -0.832031 42.503906 C -0.277344 43.765625 0.378906 45 1.109375 46.171875 Z M -3.089844 34.539062 C -3.113281 34.363281 -3.269531 34.246094 -3.441406 34.269531 C -3.613281 34.292969 -3.734375 34.449219 -3.710938 34.621094 C -3.523438 36.019531 -3.230469 37.417969 -2.847656 38.773438 C -2.808594 38.910156 -2.683594 39 -2.542969 39 C -2.515625 39 -2.488281 38.996094 -2.457031 38.988281 C -2.292969 38.941406 -2.195312 38.769531 -2.242188 38.601562 C -2.617188 37.273438 -2.902344 35.90625 -3.089844 34.539062 Z M 3.542969 49.535156 C 3.429688 49.402344 3.230469 49.382812 3.097656 49.496094 C 2.964844 49.605469 2.949219 49.804688 3.058594 49.9375 C 3.960938 51.019531 4.949219 52.046875 5.996094 52.992188 C 6.054688 53.046875 6.132812 53.074219 6.207031 53.074219 C 6.292969 53.074219 6.378906 53.039062 6.441406 52.972656 C 6.558594 52.84375 6.546875 52.644531 6.417969 52.527344 C 5.394531 51.601562 4.425781 50.59375 3.542969 49.535156 Z M 52.570312 45.0625 C 52.421875 44.972656 52.226562 45.027344 52.140625 45.179688 C 51.585938 46.15625 50.964844 47.109375 50.300781 48.019531 C 50.199219 48.160156 50.230469 48.355469 50.371094 48.457031 C 50.425781 48.5 50.492188 48.519531 50.554688 48.519531 C 50.652344 48.519531 50.75 48.476562 50.808594 48.390625 C 51.488281 47.464844 52.121094 46.488281 52.6875 45.492188 C 52.773438 45.339844 52.722656 45.148438 52.570312 45.0625 Z M 43.039062 55.046875 C 42.109375 55.679688 41.136719 56.269531 40.140625 56.792969 C 39.988281 56.871094 39.929688 57.0625 40.007812 57.21875 C 40.066406 57.324219 40.175781 57.386719 40.289062 57.386719 C 40.335938 57.386719 40.386719 57.375 40.433594 57.347656 C 41.449219 56.8125 42.445312 56.214844 43.394531 55.566406 C 43.539062 55.46875 43.574219 55.273438 43.476562 55.128906 C 43.378906 54.984375 43.183594 54.949219 43.039062 55.046875 Z M 48.152344 50.632812 C 47.390625 51.457031 46.570312 52.25 45.722656 52.984375 C 45.589844 53.097656 45.574219 53.296875 45.6875 53.429688 C 45.75 53.5 45.839844 53.539062 45.925781 53.539062 C 46 53.539062 46.074219 53.511719 46.132812 53.460938 C 47 52.710938 47.835938 51.902344 48.613281 51.058594 C 48.734375 50.929688 48.726562 50.730469 48.597656 50.613281 C 48.46875 50.496094 48.269531 50.503906 48.152344 50.632812 Z M 37.0625 58.195312 C 36.015625 58.601562 34.933594 58.949219 33.847656 59.234375 C 33.675781 59.277344 33.578125 59.449219 33.621094 59.617188 C 33.65625 59.761719 33.785156 59.855469 33.925781 59.855469 C 33.953125 59.855469 33.976562 59.851562 34.003906 59.84375 C 35.117188 59.554688 36.222656 59.195312 37.292969 58.78125 C 37.453125 58.71875 37.535156 58.535156 37.472656 58.375 C 37.410156 58.210938 37.226562 58.132812 37.0625 58.195312 Z M 29.570312 0.96875 C 30.820312 1.105469 32.074219 1.320312 33.292969 1.613281 C 33.316406 1.621094 33.339844 1.625 33.367188 1.625 C 33.507812 1.625 33.636719 1.527344 33.671875 1.382812 C 33.710938 1.210938 33.609375 1.042969 33.4375 1 C 32.195312 0.703125 30.917969 0.480469 29.640625 0.34375 C 29.464844 0.324219 29.308594 0.449219 29.292969 0.621094 C 29.273438 0.792969 29.398438 0.949219 29.570312 0.96875 Z M 21.988281 1.105469 C 22 1.105469 22.015625 1.105469 22.03125 1.101562 C 23.269531 0.921875 24.539062 0.820312 25.796875 0.796875 C 25.972656 0.792969 26.109375 0.652344 26.105469 0.476562 C 26.101562 0.304688 25.964844 0.171875 25.785156 0.167969 C 24.5 0.191406 23.207031 0.296875 21.941406 0.476562 C 21.769531 0.503906 21.652344 0.664062 21.675781 0.835938 C 21.699219 0.992188 21.832031 1.105469 21.988281 1.105469 Z M 14.648438 3.152344 C 14.691406 3.152344 14.730469 3.144531 14.773438 3.125 C 15.929688 2.636719 17.128906 2.21875 18.335938 1.882812 C 18.503906 1.835938 18.601562 1.660156 18.554688 1.492188 C 18.507812 1.324219 18.335938 1.226562 18.167969 1.273438 C 16.933594 1.617188 15.707031 2.046875 14.527344 2.546875 C 14.367188 2.613281 14.292969 2.800781 14.359375 2.960938 C 14.410156 3.078125 14.527344 3.152344 14.648438 3.152344 Z M 36.898438 2.730469 C 38.070312 3.175781 39.226562 3.703125 40.335938 4.300781 C 40.382812 4.324219 40.433594 4.335938 40.484375 4.335938 C 40.59375 4.335938 40.703125 4.277344 40.761719 4.171875 C 40.84375 4.015625 40.785156 3.824219 40.632812 3.742188 C 39.5 3.136719 38.320312 2.597656 37.125 2.140625 C 36.960938 2.078125 36.777344 2.160156 36.71875 2.324219 C 36.65625 2.488281 36.738281 2.667969 36.898438 2.730469 Z M 30.113281 9.5625 C 30.113281 9.289062 30.195312 9.035156 30.335938 8.820312 C 30.578125 8.453125 30.992188 8.210938 31.460938 8.210938 L 49.285156 8.210938 C 50.027344 8.210938 50.632812 8.816406 50.632812 9.5625 L 50.632812 14.765625 C 50.632812 15.511719 50.027344 16.117188 49.285156 16.117188 L 47.324219 16.117188 L 47.324219 18.90625 L 48.09375 18.140625 C 48.214844 18.015625 48.414062 18.015625 48.539062 18.140625 C 48.660156 18.261719 48.660156 18.460938 48.539062 18.585938 L 47.234375 19.890625 C 47.203125 19.917969 47.167969 19.941406 47.128906 19.957031 C 47.128906 19.960938 47.125 19.960938 47.125 19.960938 C 47.089844 19.972656 47.050781 19.984375 47.011719 19.984375 C 46.96875 19.984375 46.929688 19.972656 46.894531 19.960938 C 46.894531 19.960938 46.890625 19.960938 46.890625 19.957031 C 46.851562 19.941406 46.816406 19.917969 46.789062 19.890625 L 45.484375 18.585938 C 45.359375 18.460938 45.359375 18.261719 45.484375 18.140625 C 45.605469 18.015625 45.804688 18.015625 45.929688 18.140625 L 46.695312 18.90625 L 46.695312 16.117188 L 31.460938 16.117188 C 30.71875 16.117188 30.113281 15.511719 30.113281 14.765625 Z M 49.285156 8.839844 L 44.019531 8.839844 L 44.019531 15.484375 L 49.285156 15.484375 C 49.679688 15.484375 50.003906 15.164062 50.003906 14.765625 L 50.003906 9.5625 C 50.003906 9.164062 49.679688 8.839844 49.285156 8.839844 Z M 43.390625 8.839844 L 31.460938 8.839844 C 31.066406 8.839844 30.742188 9.164062 30.742188 9.5625 L 30.742188 14.765625 C 30.742188 15.164062 31.066406 15.484375 31.460938 15.484375 L 43.390625 15.484375 Z M 47.769531 35.183594 L 47.769531 40.390625 C 47.769531 41.132812 47.164062 41.738281 46.417969 41.738281 L 41.871094 41.738281 C 41.128906 41.738281 40.523438 41.132812 40.523438 40.390625 L 40.523438 35.183594 C 40.523438 34.441406 41.128906 33.835938 41.871094 33.835938 L 46.417969 33.835938 C 47.164062 33.835938 47.769531 34.441406 47.769531 35.183594 Z M 47.136719 40.390625 L 47.136719 35.183594 C 47.136719 34.789062 46.816406 34.464844 46.417969 34.464844 L 41.871094 34.464844 C 41.476562 34.464844 41.152344 34.789062 41.152344 35.183594 L 41.152344 40.390625 C 41.152344 40.785156 41.476562 41.109375 41.871094 41.109375 L 46.417969 41.109375 C 46.816406 41.109375 47.136719 40.785156 47.136719 40.390625 Z M 45.25 39.3125 L 44.621094 39.3125 L 44.621094 35.949219 C 44.621094 35.8125 44.535156 35.691406 44.40625 35.648438 C 44.28125 35.605469 44.136719 35.648438 44.054688 35.753906 L 43.113281 36.984375 C 43.007812 37.121094 43.03125 37.320312 43.171875 37.425781 C 43.308594 37.53125 43.503906 37.507812 43.613281 37.367188 L 43.992188 36.875 L 43.992188 39.3125 L 43.363281 39.3125 C 43.1875 39.3125 43.046875 39.453125 43.046875 39.625 C 43.046875 39.800781 43.1875 39.941406 43.363281 39.941406 L 45.25 39.941406 C 45.425781 39.941406 45.566406 39.800781 45.566406 39.625 C 45.566406 39.453125 45.425781 39.3125 45.25 39.3125 Z M 58.703125 35.183594 L 58.703125 40.390625 C 58.703125 41.132812 58.097656 41.738281 57.355469 41.738281 L 52.808594 41.738281 C 52.0625 41.738281 51.457031 41.132812 51.457031 40.390625 L 51.457031 35.183594 C 51.457031 34.441406 52.0625 33.835938 52.808594 33.835938 L 57.355469 33.835938 C 58.097656 33.835938 58.703125 34.441406 58.703125 35.183594 Z M 58.074219 35.183594 C 58.074219 34.789062 57.75 34.464844 57.355469 34.464844 L 52.808594 34.464844 C 52.410156 34.464844 52.089844 34.789062 52.089844 35.183594 L 52.089844 40.390625 C 52.089844 40.785156 52.410156 41.109375 52.808594 41.109375 L 57.355469 41.109375 C 57.75 41.109375 58.074219 40.785156 58.074219 40.390625 Z M 56.277344 39.3125 L 54.554688 39.3125 C 54.800781 39.058594 55.082031 38.832031 55.449219 38.585938 C 56.082031 38.160156 56.457031 37.648438 56.507812 37.144531 C 56.53125 36.878906 56.480469 36.476562 56.078125 36.070312 C 55.652344 35.640625 55.039062 35.515625 54.484375 35.746094 C 53.917969 35.976562 53.570312 36.503906 53.570312 37.117188 C 53.570312 37.292969 53.710938 37.433594 53.882812 37.433594 C 54.058594 37.433594 54.199219 37.292969 54.199219 37.117188 C 54.199219 36.695312 54.46875 36.433594 54.722656 36.328125 C 55.042969 36.195312 55.382812 36.265625 55.632812 36.515625 C 55.816406 36.703125 55.898438 36.886719 55.878906 37.082031 C 55.847656 37.390625 55.5625 37.75 55.097656 38.0625 C 54.441406 38.503906 54.015625 38.902344 53.628906 39.441406 C 53.558594 39.539062 53.550781 39.664062 53.601562 39.769531 C 53.65625 39.875 53.765625 39.941406 53.882812 39.941406 L 56.277344 39.941406 C 56.453125 39.941406 56.59375 39.800781 56.59375 39.625 C 56.59375 39.453125 56.453125 39.3125 56.277344 39.3125 Z M 39.007812 25.289062 L 40.058594 25.289062 L 40.058594 26.339844 C 40.058594 26.515625 40.199219 26.65625 40.371094 26.65625 C 40.546875 26.65625 40.6875 26.515625 40.6875 26.339844 L 40.6875 25.289062 L 41.738281 25.289062 C 41.910156 25.289062 42.050781 25.148438 42.050781 24.976562 C 42.050781 24.800781 41.910156 24.660156 41.738281 24.660156 L 40.6875 24.660156 L 40.6875 23.609375 C 40.6875 23.4375 40.546875 23.296875 40.371094 23.296875 C 40.199219 23.296875 40.058594 23.4375 40.058594 23.609375 L 40.058594 24.660156 L 39.007812 24.660156 C 38.835938 24.660156 38.695312 24.800781 38.695312 24.976562 C 38.695312 25.148438 38.835938 25.289062 39.007812 25.289062 Z M 43.703125 21.023438 L 50.316406 21.023438 C 50.320312 21.023438 50.324219 21.023438 50.328125 21.023438 C 50.332031 21.023438 50.335938 21.023438 50.339844 21.023438 L 55.921875 21.023438 C 56.664062 21.023438 57.269531 21.628906 57.269531 22.371094 L 57.269531 27.578125 C 57.269531 28.320312 56.664062 28.925781 55.921875 28.925781 L 53.339844 28.925781 L 54.082031 31.511719 L 54.605469 30.5625 C 54.691406 30.410156 54.882812 30.355469 55.035156 30.4375 C 55.1875 30.523438 55.242188 30.714844 55.15625 30.867188 L 54.265625 32.480469 C 54.253906 32.503906 54.238281 32.523438 54.21875 32.542969 C 54.214844 32.546875 54.207031 32.554688 54.203125 32.558594 C 54.1875 32.570312 54.175781 32.582031 54.15625 32.59375 C 54.152344 32.597656 54.148438 32.601562 54.140625 32.605469 C 54.121094 32.613281 54.101562 32.625 54.078125 32.632812 C 54.074219 32.632812 54.074219 32.632812 54.074219 32.632812 C 54.046875 32.640625 54.019531 32.644531 53.992188 32.644531 C 53.992188 32.644531 53.988281 32.644531 53.988281 32.644531 C 53.960938 32.644531 53.929688 32.636719 53.898438 32.628906 C 53.890625 32.625 53.882812 32.621094 53.871094 32.617188 C 53.859375 32.613281 53.847656 32.609375 53.835938 32.605469 L 52.222656 31.710938 C 52.070312 31.625 52.015625 31.433594 52.097656 31.28125 C 52.183594 31.132812 52.375 31.074219 52.527344 31.160156 L 53.476562 31.683594 L 52.683594 28.925781 L 50.339844 28.925781 C 50.335938 28.925781 50.332031 28.925781 50.328125 28.925781 C 50.324219 28.925781 50.320312 28.925781 50.316406 28.925781 L 46.542969 28.925781 L 45.75 31.683594 L 46.699219 31.160156 C 46.851562 31.074219 47.042969 31.132812 47.128906 31.28125 C 47.210938 31.433594 47.15625 31.625 47.003906 31.710938 L 45.390625 32.605469 C 45.378906 32.609375 45.367188 32.613281 45.355469 32.617188 C 45.34375 32.621094 45.335938 32.625 45.328125 32.628906 C 45.296875 32.636719 45.265625 32.644531 45.238281 32.644531 C 45.238281 32.644531 45.234375 32.644531 45.234375 32.644531 C 45.207031 32.644531 45.179688 32.640625 45.152344 32.632812 C 45.152344 32.632812 45.152344 32.632812 45.148438 32.632812 C 45.125 32.625 45.105469 32.613281 45.085938 32.605469 C 45.078125 32.601562 45.074219 32.597656 45.070312 32.59375 C 45.050781 32.582031 45.039062 32.570312 45.023438 32.558594 C 45.019531 32.554688 45.011719 32.546875 45.007812 32.542969 C 44.988281 32.523438 44.972656 32.503906 44.960938 32.480469 L 44.070312 30.867188 C 43.984375 30.714844 44.039062 30.523438 44.191406 30.4375 C 44.34375 30.351562 44.535156 30.410156 44.621094 30.5625 L 45.144531 31.511719 L 45.886719 28.925781 L 43.703125 28.925781 C 43.699219 28.925781 43.695312 28.925781 43.691406 28.925781 C 43.6875 28.925781 43.683594 28.925781 43.679688 28.925781 L 38.101562 28.925781 C 37.355469 28.925781 36.75 28.324219 36.75 27.578125 L 36.75 22.371094 C 36.75 21.628906 37.355469 21.023438 38.101562 21.023438 L 43.679688 21.023438 C 43.683594 21.023438 43.6875 21.023438 43.691406 21.023438 C 43.695312 21.023438 43.699219 21.023438 43.703125 21.023438 Z M 50.003906 21.652344 L 44.019531 21.652344 L 44.019531 28.296875 L 50.003906 28.296875 Z M 38.101562 28.296875 L 43.367188 28.296875 L 43.367188 21.652344 L 38.101562 21.652344 C 37.703125 21.652344 37.378906 21.976562 37.378906 22.371094 L 37.378906 27.578125 C 37.378906 27.976562 37.703125 28.296875 38.101562 28.296875 Z M 55.921875 21.652344 L 50.65625 21.652344 L 50.65625 28.296875 L 55.921875 28.296875 C 56.316406 28.296875 56.640625 27.976562 56.640625 27.578125 L 56.640625 22.371094 C 56.640625 21.976562 56.316406 21.652344 55.921875 21.652344 Z M 32.871094 10.339844 C 32.695312 10.339844 32.554688 10.480469 32.554688 10.65625 C 32.554688 10.828125 32.695312 10.96875 32.871094 10.96875 L 35.523438 10.96875 C 35.699219 10.96875 35.839844 10.828125 35.839844 10.65625 C 35.839844 10.480469 35.699219 10.339844 35.523438 10.339844 Z M 34.0625 11.847656 C 33.886719 11.847656 33.746094 11.988281 33.746094 12.164062 C 33.746094 12.335938 33.886719 12.480469 34.0625 12.480469 L 40.609375 12.480469 C 40.78125 12.480469 40.925781 12.335938 40.925781 12.164062 C 40.925781 11.988281 40.78125 11.847656 40.609375 11.847656 Z M 39.710938 13.355469 L 34.0625 13.355469 C 33.886719 13.355469 33.746094 13.496094 33.746094 13.671875 C 33.746094 13.84375 33.886719 13.988281 34.0625 13.988281 L 39.710938 13.988281 C 39.882812 13.988281 40.023438 13.84375 40.023438 13.671875 C 40.023438 13.496094 39.882812 13.355469 39.710938 13.355469 Z M 18.617188 34.015625 C 16.226562 34.015625 14.28125 35.945312 14.28125 38.3125 L 14.28125 38.761719 L 13.105469 37.8125 C 12.972656 37.703125 12.773438 37.726562 12.664062 37.863281 C 12.554688 37.996094 12.574219 38.195312 12.710938 38.304688 L 14.398438 39.664062 C 14.402344 39.667969 14.40625 39.667969 14.410156 39.671875 C 14.433594 39.6875 14.457031 39.703125 14.484375 39.710938 C 14.492188 39.714844 14.5 39.71875 14.503906 39.71875 C 14.535156 39.726562 14.5625 39.734375 14.59375 39.734375 C 14.597656 39.734375 14.597656 39.734375 14.597656 39.734375 C 14.632812 39.734375 14.664062 39.726562 14.691406 39.71875 C 14.695312 39.71875 14.699219 39.714844 14.703125 39.714844 C 14.734375 39.703125 14.765625 39.6875 14.792969 39.664062 L 16.480469 38.304688 C 16.617188 38.195312 16.636719 37.996094 16.527344 37.863281 C 16.417969 37.726562 16.21875 37.703125 16.085938 37.8125 L 14.914062 38.757812 L 14.914062 38.3125 C 14.914062 36.292969 16.574219 34.648438 18.617188 34.648438 C 20.664062 34.648438 22.324219 36.292969 22.324219 38.3125 L 22.324219 55.550781 C 22.324219 57.917969 24.269531 59.847656 26.660156 59.847656 C 29.050781 59.847656 30.996094 57.917969 30.996094 55.550781 L 30.996094 54.363281 C 30.996094 54.1875 30.855469 54.046875 30.683594 54.046875 C 30.507812 54.046875 30.367188 54.1875 30.367188 54.363281 L 30.367188 55.550781 C 30.367188 57.570312 28.703125 59.214844 26.660156 59.214844 C 24.617188 59.214844 22.953125 57.570312 22.953125 55.550781 L 22.953125 38.3125 C 22.953125 35.945312 21.007812 34.015625 18.617188 34.015625 Z M 33.5 51.335938 C 33.304688 51.667969 32.921875 51.894531 32.484375 51.894531 L 32.292969 51.894531 C 32.152344 52.734375 31.421875 53.375 30.546875 53.375 C 30.535156 53.375 30.527344 53.375 30.515625 53.375 C 30.042969 53.367188 29.601562 53.175781 29.273438 52.835938 C 29.140625 52.695312 29.03125 52.542969 28.953125 52.375 C 28.878906 52.222656 28.824219 52.0625 28.796875 51.894531 L 28.605469 51.894531 C 27.96875 51.894531 27.449219 51.414062 27.449219 50.824219 L 27.449219 48.570312 C 27.421875 48.496094 27.402344 48.417969 27.402344 48.335938 L 27.398438 48.140625 C 27.398438 46.644531 26.84375 45.136719 25.835938 43.898438 C 24.902344 42.753906 24.425781 41.308594 24.492188 39.824219 C 24.628906 36.71875 27.109375 34.097656 29.914062 34.097656 C 30.191406 34.097656 30.425781 34.199219 30.589844 34.394531 C 30.621094 34.429688 30.644531 34.46875 30.671875 34.507812 C 30.691406 34.488281 30.714844 34.464844 30.742188 34.445312 C 30.746094 34.441406 30.753906 34.433594 30.761719 34.425781 C 30.785156 34.40625 30.808594 34.386719 30.835938 34.371094 C 30.851562 34.355469 30.871094 34.34375 30.886719 34.332031 C 30.90625 34.320312 30.921875 34.308594 30.941406 34.296875 C 30.96875 34.28125 30.996094 34.261719 31.023438 34.246094 C 31.035156 34.242188 31.046875 34.234375 31.058594 34.230469 C 31.09375 34.210938 31.128906 34.195312 31.164062 34.179688 C 31.171875 34.175781 31.179688 34.171875 31.1875 34.167969 C 31.226562 34.152344 31.269531 34.136719 31.3125 34.125 C 31.316406 34.121094 31.324219 34.121094 31.328125 34.121094 C 31.371094 34.105469 31.414062 34.09375 31.460938 34.085938 C 31.46875 34.085938 31.476562 34.082031 31.480469 34.082031 C 31.523438 34.074219 31.570312 34.066406 31.613281 34.0625 C 31.625 34.0625 31.636719 34.058594 31.648438 34.058594 C 31.6875 34.054688 31.726562 34.054688 31.765625 34.054688 C 31.769531 34.054688 31.777344 34.050781 31.785156 34.050781 C 31.796875 34.050781 31.808594 34.054688 31.820312 34.054688 C 31.839844 34.054688 31.863281 34.054688 31.886719 34.054688 C 31.902344 34.058594 31.921875 34.058594 31.941406 34.0625 C 31.96875 34.066406 31.992188 34.066406 32.019531 34.070312 C 32.042969 34.074219 32.070312 34.082031 32.09375 34.085938 C 32.507812 34.167969 32.871094 34.40625 33.101562 34.753906 C 33.363281 34.550781 33.683594 34.441406 34.027344 34.441406 C 34.859375 34.441406 35.53125 35.105469 35.53125 35.925781 C 35.53125 36.015625 35.523438 36.109375 35.507812 36.195312 C 36.199219 36.332031 36.722656 36.933594 36.722656 37.65625 C 36.722656 37.941406 36.640625 38.21875 36.488281 38.453125 C 36.59375 38.503906 36.691406 38.570312 36.78125 38.640625 C 36.792969 38.652344 36.808594 38.664062 36.824219 38.675781 C 36.839844 38.691406 36.855469 38.707031 36.875 38.722656 C 37.183594 39.003906 37.378906 39.40625 37.378906 39.855469 C 37.378906 40.238281 37.238281 40.589844 37 40.859375 C 36.984375 40.878906 36.964844 40.894531 36.949219 40.914062 C 36.929688 40.933594 36.910156 40.953125 36.890625 40.972656 C 36.761719 41.09375 36.617188 41.199219 36.453125 41.273438 C 36.625 41.519531 36.722656 41.816406 36.722656 42.125 C 36.722656 42.9375 36.054688 43.601562 35.234375 43.609375 C 35.222656 43.613281 35.203125 43.613281 35.183594 43.613281 C 34.910156 44 34.519531 44.773438 34.375 45.066406 C 33.894531 46.003906 33.640625 47.128906 33.640625 48.335938 C 33.636719 48.375 33.632812 48.414062 33.625 48.453125 C 33.636719 48.484375 33.640625 48.519531 33.640625 48.554688 L 33.640625 50.824219 C 33.640625 51.011719 33.589844 51.183594 33.5 51.335938 Z M 31.648438 51.894531 L 29.445312 51.894531 C 29.496094 52.078125 29.585938 52.253906 29.726562 52.398438 C 29.9375 52.617188 30.222656 52.742188 30.527344 52.746094 C 30.53125 52.746094 30.539062 52.746094 30.546875 52.746094 C 31.074219 52.746094 31.519531 52.382812 31.648438 51.894531 Z M 28.605469 51.265625 L 32.484375 51.265625 C 32.769531 51.265625 33.011719 51.0625 33.011719 50.824219 L 33.011719 49.039062 C 32.980469 49.042969 32.945312 49.046875 32.910156 49.046875 L 30.96875 49.046875 C 30.855469 49.046875 30.75 49.023438 30.652344 48.980469 C 30.601562 49.019531 30.535156 49.046875 30.460938 49.046875 L 28.128906 49.046875 C 28.113281 49.046875 28.097656 49.042969 28.078125 49.042969 L 28.078125 50.824219 C 28.078125 51.0625 28.320312 51.265625 28.605469 51.265625 Z M 25.121094 39.855469 C 25.0625 41.179688 25.488281 42.476562 26.324219 43.5 C 27.421875 44.851562 28.027344 46.5 28.027344 48.136719 L 28.03125 48.324219 C 28.03125 48.375 28.078125 48.417969 28.128906 48.417969 L 30.148438 48.417969 L 30.203125 35.613281 C 30.203125 35.527344 30.214844 35.449219 30.226562 35.367188 C 30.234375 35.171875 30.210938 34.921875 30.109375 34.800781 C 30.078125 34.765625 30.03125 34.726562 29.914062 34.726562 C 27.4375 34.726562 25.242188 37.074219 25.121094 39.855469 Z M 34.792969 36.339844 C 34.867188 36.210938 34.902344 36.074219 34.902344 35.925781 C 34.902344 35.453125 34.511719 35.070312 34.027344 35.070312 C 33.746094 35.070312 33.492188 35.199219 33.328125 35.417969 C 33.339844 35.507812 33.339844 35.601562 33.335938 35.699219 C 33.304688 36.109375 33.117188 36.484375 32.800781 36.753906 C 32.742188 36.804688 32.667969 36.832031 32.597656 36.832031 C 32.507812 36.832031 32.417969 36.792969 32.355469 36.722656 C 32.246094 36.589844 32.257812 36.390625 32.390625 36.277344 C 32.578125 36.117188 32.6875 35.894531 32.707031 35.65625 C 32.722656 35.414062 32.644531 35.183594 32.484375 35 C 32.367188 34.863281 32.210938 34.765625 32.035156 34.71875 C 32.027344 34.714844 32.019531 34.714844 32.011719 34.710938 C 31.96875 34.699219 31.921875 34.695312 31.878906 34.691406 C 31.859375 34.6875 31.835938 34.683594 31.816406 34.683594 C 31.789062 34.683594 31.761719 34.6875 31.734375 34.6875 C 31.691406 34.691406 31.652344 34.691406 31.613281 34.699219 C 31.59375 34.703125 31.578125 34.707031 31.558594 34.710938 C 31.515625 34.722656 31.472656 34.734375 31.433594 34.75 C 31.417969 34.757812 31.398438 34.765625 31.382812 34.773438 C 31.347656 34.789062 31.3125 34.808594 31.277344 34.828125 C 31.257812 34.84375 31.238281 34.855469 31.21875 34.871094 C 31.191406 34.890625 31.167969 34.910156 31.144531 34.929688 C 31.117188 34.957031 31.089844 34.980469 31.066406 35.007812 C 31.054688 35.023438 31.046875 35.035156 31.035156 35.046875 C 30.929688 35.183594 30.863281 35.347656 30.851562 35.53125 C 30.847656 35.558594 30.84375 35.582031 30.835938 35.605469 C 30.835938 35.609375 30.832031 35.613281 30.832031 35.613281 L 30.832031 48.289062 C 30.832031 48.359375 30.894531 48.417969 30.96875 48.417969 L 32.910156 48.417969 C 32.964844 48.417969 33.007812 48.378906 33.011719 48.328125 C 33.011719 47.03125 33.289062 45.800781 33.8125 44.785156 C 33.828125 44.75 34.164062 44.0625 34.484375 43.535156 C 34.371094 43.5 34.257812 43.449219 34.152344 43.378906 C 34.007812 43.285156 33.964844 43.089844 34.0625 42.945312 C 34.15625 42.800781 34.351562 42.757812 34.496094 42.855469 C 34.640625 42.949219 34.835938 42.976562 34.976562 42.984375 C 34.984375 42.984375 34.992188 42.988281 35.003906 42.988281 C 35.011719 42.988281 35.023438 42.988281 35.03125 42.988281 C 35.117188 42.988281 35.175781 42.984375 35.183594 42.984375 C 35.195312 42.980469 35.207031 42.980469 35.21875 42.980469 C 35.699219 42.980469 36.09375 42.597656 36.09375 42.125 C 36.09375 41.816406 35.921875 41.527344 35.644531 41.375 C 35.519531 41.308594 35.457031 41.160156 35.492188 41.023438 C 35.507812 40.964844 35.542969 40.914062 35.582031 40.875 C 35.640625 40.808594 35.726562 40.765625 35.820312 40.765625 C 36.136719 40.765625 36.414062 40.609375 36.582031 40.371094 C 36.6875 40.222656 36.746094 40.046875 36.746094 39.855469 C 36.746094 39.632812 36.660156 39.429688 36.527344 39.269531 C 36.511719 39.25 36.5 39.234375 36.484375 39.214844 C 36.476562 39.210938 36.46875 39.203125 36.460938 39.195312 C 36.292969 39.039062 36.070312 38.941406 35.820312 38.941406 C 35.535156 38.941406 35.273438 39.066406 35.09375 39.285156 C 34.984375 39.421875 34.785156 39.441406 34.652344 39.332031 C 34.515625 39.222656 34.496094 39.023438 34.605469 38.886719 C 34.894531 38.535156 35.316406 38.328125 35.773438 38.316406 C 35.972656 38.152344 36.09375 37.910156 36.09375 37.65625 C 36.09375 37.183594 35.699219 36.800781 35.21875 36.800781 C 35.179688 36.800781 35.144531 36.800781 35.105469 36.808594 C 34.988281 36.820312 34.871094 36.769531 34.804688 36.667969 C 34.742188 36.570312 34.734375 36.441406 34.792969 36.339844 Z M 18.328125 50.390625 C 18.328125 50.601562 18.304688 50.808594 18.269531 51.011719 C 18.132812 51.828125 17.742188 52.582031 17.121094 53.171875 C 17.070312 53.21875 17.015625 53.269531 16.960938 53.316406 C 16.261719 53.910156 15.371094 54.238281 14.453125 54.238281 C 13.53125 54.238281 12.640625 53.910156 11.941406 53.316406 C 11.882812 53.261719 11.828125 53.21875 11.777344 53.167969 C 11.011719 52.4375 10.585938 51.453125 10.574219 50.390625 C 10.105469 50.296875 9.742188 49.96875 9.539062 49.441406 C 9.402344 49.082031 9.210938 48.402344 9.507812 47.894531 C 9.582031 47.765625 9.714844 47.617188 9.933594 47.507812 C 9.707031 46.929688 9.433594 46.015625 9.59375 44.824219 C 9.667969 44.257812 9.839844 43.632812 10.164062 42.945312 C 11.328125 40.484375 13.972656 40.566406 14.085938 40.574219 C 14.179688 40.578125 14.265625 40.621094 14.320312 40.695312 C 14.378906 40.769531 14.398438 40.863281 14.378906 40.957031 L 14.292969 41.355469 C 16.160156 40.683594 17.898438 41.472656 17.976562 41.511719 C 18.085938 41.5625 18.15625 41.667969 18.160156 41.789062 C 18.164062 41.90625 18.097656 42.019531 17.992188 42.074219 L 17.402344 42.390625 C 17.824219 42.515625 18.3125 42.730469 18.683594 43.082031 C 19.675781 44.023438 19.789062 45.410156 19.796875 45.46875 C 19.804688 45.570312 19.761719 45.667969 19.6875 45.730469 C 19.609375 45.796875 19.507812 45.820312 19.410156 45.800781 L 18.945312 45.691406 C 19.53125 46.523438 19.769531 47.296875 19.78125 47.339844 C 19.808594 47.429688 19.796875 47.523438 19.746094 47.605469 C 19.691406 47.683594 19.609375 47.734375 19.515625 47.742188 C 19.453125 47.75 19.394531 47.753906 19.332031 47.757812 C 19.601562 48.273438 19.546875 48.96875 19.363281 49.445312 C 19.160156 49.96875 18.800781 50.296875 18.328125 50.390625 Z M 18.03125 49.792969 C 18.382812 49.792969 18.625 49.605469 18.773438 49.21875 C 18.90625 48.875 18.949219 48.339844 18.765625 48.023438 C 18.679688 47.882812 18.566406 47.804688 18.398438 47.777344 C 15.558594 47.65625 13.195312 45.988281 12.414062 45.375 L 10.609375 47.886719 C 10.605469 47.890625 10.601562 47.890625 10.601562 47.894531 C 10.59375 47.902344 10.585938 47.910156 10.582031 47.917969 C 10.5625 47.9375 10.542969 47.953125 10.523438 47.964844 C 10.515625 47.96875 10.511719 47.976562 10.503906 47.980469 C 10.472656 47.996094 10.441406 48.003906 10.410156 48.011719 C 10.40625 48.011719 10.40625 48.011719 10.402344 48.015625 C 10.144531 48.050781 10.074219 48.171875 10.050781 48.210938 C 9.933594 48.410156 9.964844 48.792969 10.128906 49.214844 C 10.277344 49.601562 10.519531 49.792969 10.871094 49.792969 C 11.179688 49.792969 11.191406 50.058594 11.203125 50.34375 C 11.203125 51.257812 11.5625 52.09375 12.214844 52.714844 C 12.257812 52.757812 12.304688 52.796875 12.347656 52.832031 C 12.933594 53.332031 13.679688 53.609375 14.453125 53.609375 C 15.222656 53.609375 15.96875 53.332031 16.550781 52.835938 C 16.597656 52.796875 16.640625 52.757812 16.683594 52.714844 C 17.339844 52.09375 17.699219 51.257812 17.699219 50.359375 C 17.710938 50.0625 17.722656 49.792969 18.03125 49.792969 Z M 10.734375 43.214844 C 9.921875 44.933594 10.160156 46.25 10.433594 47.050781 L 12.101562 44.734375 C 12.152344 44.660156 12.234375 44.613281 12.320312 44.605469 C 12.332031 44.601562 12.34375 44.601562 12.355469 44.601562 C 12.433594 44.601562 12.507812 44.628906 12.566406 44.679688 C 12.597656 44.707031 15.578125 47.300781 19.039062 47.148438 C 18.855469 46.722656 18.488281 46.003906 17.886719 45.394531 C 17.789062 45.292969 17.765625 45.140625 17.835938 45.019531 C 17.902344 44.894531 18.046875 44.835938 18.183594 44.867188 L 19.089844 45.078125 C 18.984375 44.65625 18.753906 44.015625 18.25 43.539062 C 17.621094 42.941406 16.464844 42.835938 16.453125 42.835938 C 16.3125 42.824219 16.199219 42.722656 16.171875 42.585938 C 16.144531 42.449219 16.207031 42.308594 16.332031 42.246094 L 17.042969 41.867188 C 16.328125 41.691406 15.144531 41.5625 14 42.171875 C 13.894531 42.230469 13.761719 42.21875 13.664062 42.144531 C 13.566406 42.070312 13.519531 41.945312 13.546875 41.828125 L 13.679688 41.21875 C 12.976562 41.289062 11.484375 41.625 10.734375 43.214844 Z M 18.042969 55.523438 L 10.828125 55.523438 C 9.214844 55.523438 7.90625 56.835938 7.90625 58.445312 L 7.90625 60.015625 C 7.90625 60.191406 8.046875 60.332031 8.222656 60.332031 C 8.394531 60.332031 8.535156 60.191406 8.535156 60.015625 L 8.535156 58.445312 C 8.535156 57.183594 9.5625 56.15625 10.828125 56.15625 L 18.042969 56.15625 C 19.304688 56.15625 20.332031 57.183594 20.332031 58.445312 L 20.332031 60.015625 C 20.332031 60.191406 20.472656 60.332031 20.648438 60.332031 C 20.820312 60.332031 20.960938 60.191406 20.960938 60.015625 L 20.960938 58.445312 C 20.960938 56.835938 19.652344 55.523438 18.042969 55.523438 Z M 16.835938 29.8125 L -0.570312 29.8125 C -1.699219 29.8125 -2.613281 28.894531 -2.613281 27.765625 L -2.613281 18.96875 C -2.613281 17.839844 -1.699219 16.921875 -0.570312 16.921875 L 3.476562 16.921875 C 3.449219 16.785156 3.433594 16.644531 3.433594 16.5 L 3.433594 7.703125 C 3.433594 6.574219 4.347656 5.65625 5.476562 5.65625 L 22.882812 5.65625 C 24.011719 5.65625 24.925781 6.574219 24.925781 7.703125 L 24.925781 16.5 C 24.925781 17.628906 24.011719 18.546875 22.882812 18.546875 L 18.835938 18.546875 C 18.867188 18.683594 18.882812 18.824219 18.882812 18.96875 L 18.882812 27.765625 C 18.882812 28.894531 17.964844 29.8125 16.835938 29.8125 Z M -0.570312 29.179688 L 16.835938 29.179688 C 17.617188 29.179688 18.25 28.546875 18.25 27.765625 L 18.25 18.96875 C 18.25 18.1875 17.617188 17.554688 16.835938 17.554688 L -0.570312 17.554688 C -1.351562 17.554688 -1.984375 18.1875 -1.984375 18.96875 L -1.984375 27.765625 C -1.984375 28.546875 -1.351562 29.179688 -0.570312 29.179688 Z M 4.125 16.921875 L 16.835938 16.921875 C 17.578125 16.921875 18.226562 17.320312 18.585938 17.914062 L 22.882812 17.914062 C 23.664062 17.914062 24.296875 17.28125 24.296875 16.5 L 24.296875 7.703125 C 24.296875 6.921875 23.664062 6.289062 22.882812 6.289062 L 5.476562 6.289062 C 4.695312 6.289062 4.0625 6.921875 4.0625 7.703125 L 4.0625 16.5 C 4.0625 16.648438 4.085938 16.789062 4.125 16.921875 Z M 4.792969 28.089844 C 4.96875 28.089844 5.109375 27.949219 5.109375 27.773438 C 5.109375 27.601562 4.96875 27.460938 4.792969 27.460938 L 4.097656 27.460938 L 4.097656 24.414062 C 4.097656 24.285156 4.019531 24.167969 3.894531 24.121094 C 3.773438 24.074219 3.636719 24.109375 3.550781 24.203125 L 2.542969 25.328125 C 2.425781 25.457031 2.4375 25.65625 2.566406 25.773438 C 2.695312 25.886719 2.894531 25.878906 3.007812 25.75 L 3.46875 25.238281 L 3.46875 27.460938 L 2.773438 27.460938 C 2.601562 27.460938 2.460938 27.601562 2.460938 27.773438 C 2.460938 27.949219 2.601562 28.089844 2.773438 28.089844 Z M 2.714844 21.949219 C 2.542969 21.949219 2.398438 22.089844 2.398438 22.265625 C 2.398438 22.4375 2.542969 22.578125 2.714844 22.578125 L 4.734375 22.578125 C 4.90625 22.578125 5.046875 22.4375 5.046875 22.265625 C 5.046875 22.089844 4.90625 21.949219 4.734375 21.949219 L 4.039062 21.949219 L 4.039062 18.90625 C 4.039062 18.773438 3.957031 18.65625 3.835938 18.609375 C 3.714844 18.5625 3.578125 18.597656 3.488281 18.695312 L 2.480469 19.816406 C 2.363281 19.945312 2.375 20.144531 2.503906 20.261719 C 2.632812 20.378906 2.832031 20.367188 2.949219 20.238281 L 3.410156 19.726562 L 3.410156 21.949219 Z M 9.457031 19.8125 L 9.457031 21.398438 C 9.457031 21.71875 9.304688 22.03125 9.042969 22.253906 C 8.792969 22.46875 8.46875 22.582031 8.128906 22.582031 C 8.046875 22.582031 7.960938 22.574219 7.878906 22.5625 C 7.628906 22.519531 7.398438 22.410156 7.214844 22.246094 C 6.957031 22.015625 6.808594 21.695312 6.808594 21.363281 L 6.808594 19.773438 C 6.808594 19.449219 6.960938 19.136719 7.222656 18.914062 C 7.535156 18.652344 7.960938 18.542969 8.386719 18.613281 C 9.007812 18.71875 9.457031 19.222656 9.457031 19.8125 Z M 8.828125 19.8125 C 8.828125 19.53125 8.597656 19.289062 8.285156 19.234375 C 8.234375 19.226562 8.183594 19.222656 8.136719 19.222656 C 7.945312 19.222656 7.761719 19.285156 7.628906 19.398438 C 7.507812 19.5 7.4375 19.632812 7.4375 19.773438 L 7.4375 21.363281 C 7.4375 21.515625 7.511719 21.664062 7.632812 21.777344 C 7.730469 21.859375 7.847656 21.917969 7.980469 21.941406 C 8.222656 21.980469 8.464844 21.917969 8.636719 21.773438 C 8.757812 21.667969 8.828125 21.535156 8.828125 21.398438 Z M 11.65625 22.039062 C 11.480469 22.039062 11.339844 22.179688 11.339844 22.351562 C 11.339844 22.527344 11.480469 22.667969 11.65625 22.667969 L 13.671875 22.667969 C 13.847656 22.667969 13.988281 22.527344 13.988281 22.351562 C 13.988281 22.179688 13.847656 22.039062 13.671875 22.039062 L 12.976562 22.039062 L 12.976562 18.992188 C 12.976562 18.863281 12.898438 18.746094 12.777344 18.699219 C 12.652344 18.652344 12.515625 18.683594 12.429688 18.78125 L 11.421875 19.90625 C 11.304688 20.035156 11.316406 20.234375 11.445312 20.347656 C 11.574219 20.464844 11.773438 20.453125 11.890625 20.324219 L 12.347656 19.8125 L 12.347656 22.039062 Z M 9.457031 25.292969 L 9.457031 26.882812 C 9.457031 27.203125 9.304688 27.515625 9.042969 27.738281 C 8.792969 27.949219 8.46875 28.066406 8.128906 28.066406 C 8.046875 28.066406 7.960938 28.058594 7.878906 28.042969 C 7.628906 28 7.398438 27.894531 7.214844 27.730469 C 6.957031 27.5 6.808594 27.175781 6.808594 26.84375 L 6.808594 25.257812 C 6.808594 24.933594 6.960938 24.621094 7.222656 24.398438 C 7.535156 24.132812 7.960938 24.023438 8.386719 24.097656 C 9.007812 24.199219 9.457031 24.703125 9.457031 25.292969 Z M 8.828125 25.292969 C 8.828125 25.011719 8.597656 24.769531 8.285156 24.71875 C 8.234375 24.710938 8.183594 24.703125 8.136719 24.703125 C 7.945312 24.703125 7.761719 24.765625 7.628906 24.878906 C 7.507812 24.984375 7.4375 25.117188 7.4375 25.257812 L 7.4375 26.84375 C 7.4375 26.996094 7.511719 27.148438 7.632812 27.257812 C 7.730469 27.34375 7.847656 27.398438 7.980469 27.421875 C 8.222656 27.464844 8.464844 27.402344 8.636719 27.257812 C 8.757812 27.152344 8.828125 27.019531 8.828125 26.882812 Z M 14.03125 25.320312 L 14.03125 26.90625 C 14.03125 27.230469 13.878906 27.539062 13.617188 27.761719 C 13.367188 27.976562 13.042969 28.089844 12.703125 28.089844 C 12.621094 28.089844 12.535156 28.082031 12.453125 28.070312 C 12.203125 28.027344 11.972656 27.917969 11.789062 27.753906 C 11.53125 27.523438 11.382812 27.203125 11.382812 26.871094 L 11.382812 25.28125 C 11.382812 24.960938 11.535156 24.644531 11.796875 24.425781 C 12.109375 24.160156 12.53125 24.050781 12.960938 24.121094 C 13.582031 24.226562 14.03125 24.730469 14.03125 25.320312 Z M 13.402344 25.320312 C 13.402344 25.039062 13.171875 24.796875 12.859375 24.742188 C 12.808594 24.734375 12.757812 24.730469 12.710938 24.730469 C 12.519531 24.730469 12.335938 24.792969 12.203125 24.90625 C 12.078125 25.007812 12.011719 25.144531 12.011719 25.28125 L 12.011719 26.871094 C 12.011719 27.023438 12.085938 27.175781 12.207031 27.285156 C 12.304688 27.371094 12.421875 27.425781 12.554688 27.449219 C 12.796875 27.488281 13.039062 27.425781 13.210938 27.28125 C 13.332031 27.179688 13.402344 27.046875 13.402344 26.90625 Z M 12.375 14.453125 C 12.285156 14.601562 12.332031 14.796875 12.480469 14.886719 C 12.53125 14.917969 12.585938 14.933594 12.640625 14.933594 C 12.75 14.933594 12.851562 14.878906 12.910156 14.78125 L 15.984375 9.75 C 16.074219 9.601562 16.027344 9.40625 15.878906 9.316406 C 15.730469 9.226562 15.539062 9.273438 15.449219 9.421875 Z M 10.964844 14.933594 C 11.046875 14.933594 11.128906 14.902344 11.1875 14.839844 C 11.3125 14.71875 11.3125 14.519531 11.1875 14.394531 L 8.894531 12.101562 L 11.1875 9.808594 C 11.3125 9.683594 11.3125 9.484375 11.1875 9.363281 C 11.066406 9.238281 10.867188 9.238281 10.742188 9.363281 L 8.226562 11.878906 C 8.167969 11.9375 8.136719 12.019531 8.136719 12.101562 C 8.136719 12.183594 8.167969 12.265625 8.226562 12.324219 L 10.742188 14.839844 C 10.804688 14.902344 10.886719 14.933594 10.964844 14.933594 Z M 19.464844 12.101562 L 17.171875 14.394531 C 17.046875 14.519531 17.046875 14.71875 17.171875 14.839844 C 17.230469 14.902344 17.3125 14.933594 17.394531 14.933594 C 17.472656 14.933594 17.554688 14.902344 17.617188 14.839844 L 20.132812 12.324219 C 20.191406 12.265625 20.222656 12.183594 20.222656 12.101562 C 20.222656 12.019531 20.191406 11.9375 20.132812 11.878906 L 17.617188 9.363281 C 17.492188 9.242188 17.292969 9.238281 17.171875 9.363281 C 17.046875 9.484375 17.046875 9.683594 17.171875 9.808594 Z M 19.464844 12.101562 " clip-rule="nonzero"/></clipPath><linearGradient x1="693.484949" gradientTransform="matrix(0.0230049, 0, 0, 0.0230134, -18.515878, -15.776876)" y1="804.233983" x2="3196.129808" gradientUnits="userSpaceOnUse" y2="3306.878803" id="ac7cde2e1d"><stop stop-opacity="1" stop-color="rgb(11.799622%, 83.898926%, 100%)" offset="0"/><stop stop-opacity="1" stop-color="rgb(11.799622%, 83.898926%, 100%)" offset="0.0625"/><stop stop-opacity="1" stop-color="rgb(11.799622%, 83.898926%, 100%)" offset="0.078125"/><stop stop-opacity="1" stop-color="rgb(11.799622%, 83.898926%, 100%)" offset="0.0859375"/><stop stop-opacity="1" stop-color="rgb(11.8927%, 83.691406%, 100%)" offset="0.0898438"/><stop stop-opacity="1" stop-color="rgb(11.985779%, 83.483887%, 100%)" offset="0.09375"/><stop stop-opacity="1" stop-color="rgb(12.109375%, 83.207703%, 100%)" offset="0.0976563"/><stop stop-opacity="1" stop-color="rgb(12.234497%, 82.931519%, 100%)" offset="0.101563"/><stop stop-opacity="1" stop-color="rgb(12.358093%, 82.655334%, 100%)" offset="0.105469"/><stop stop-opacity="1" stop-color="rgb(12.483215%, 82.37915%, 100%)" offset="0.109375"/><stop stop-opacity="1" stop-color="rgb(12.606812%, 82.102966%, 100%)" offset="0.113281"/><stop stop-opacity="1" stop-color="rgb(12.731934%, 81.826782%, 100%)" offset="0.117188"/><stop stop-opacity="1" stop-color="rgb(12.85553%, 81.550598%, 100%)" offset="0.121094"/><stop stop-opacity="1" stop-color="rgb(12.980652%, 81.274414%, 100%)" offset="0.125"/><stop stop-opacity="1" stop-color="rgb(13.104248%, 80.99823%, 100%)" offset="0.128906"/><stop stop-opacity="1" stop-color="rgb(13.22937%, 80.722046%, 100%)" offset="0.132813"/><stop stop-opacity="1" stop-color="rgb(13.352966%, 80.445862%, 100%)" offset="0.136719"/><stop stop-opacity="1" stop-color="rgb(13.476562%, 80.169678%, 100%)" offset="0.140625"/><stop stop-opacity="1" stop-color="rgb(13.600159%, 79.893494%, 100%)" offset="0.144531"/><stop stop-opacity="1" stop-color="rgb(13.725281%, 79.61731%, 100%)" offset="0.148438"/><stop stop-opacity="1" stop-color="rgb(13.848877%, 79.341125%, 100%)" offset="0.152344"/><stop stop-opacity="1" stop-color="rgb(13.973999%, 79.064941%, 100%)" offset="0.15625"/><stop stop-opacity="1" stop-color="rgb(14.097595%, 78.788757%, 100%)" offset="0.160156"/><stop stop-opacity="1" stop-color="rgb(14.222717%, 78.512573%, 100%)" offset="0.164063"/><stop stop-opacity="1" stop-color="rgb(14.346313%, 78.236389%, 100%)" offset="0.167969"/><stop stop-opacity="1" stop-color="rgb(14.471436%, 77.960205%, 100%)" offset="0.171875"/><stop stop-opacity="1" stop-color="rgb(14.595032%, 77.684021%, 100%)" offset="0.175781"/><stop stop-opacity="1" stop-color="rgb(14.720154%, 77.407837%, 100%)" offset="0.179688"/><stop stop-opacity="1" stop-color="rgb(14.84375%, 77.131653%, 100%)" offset="0.183594"/><stop stop-opacity="1" stop-color="rgb(14.968872%, 76.855469%, 100%)" offset="0.1875"/><stop stop-opacity="1" stop-color="rgb(15.092468%, 76.579285%, 100%)" offset="0.191406"/><stop stop-opacity="1" stop-color="rgb(15.21759%, 76.303101%, 100%)" offset="0.195313"/><stop stop-opacity="1" stop-color="rgb(15.341187%, 76.026917%, 100%)" offset="0.199219"/><stop stop-opacity="1" stop-color="rgb(15.466309%, 75.750732%, 100%)" offset="0.203125"/><stop stop-opacity="1" stop-color="rgb(15.589905%, 75.474548%, 100%)" offset="0.207031"/><stop stop-opacity="1" stop-color="rgb(15.713501%, 75.198364%, 100%)" offset="0.210938"/><stop stop-opacity="1" stop-color="rgb(15.837097%, 74.92218%, 100%)" offset="0.214844"/><stop stop-opacity="1" stop-color="rgb(15.962219%, 74.645996%, 100%)" offset="0.21875"/><stop stop-opacity="1" stop-color="rgb(16.085815%, 74.369812%, 100%)" offset="0.222656"/><stop stop-opacity="1" stop-color="rgb(16.210938%, 74.093628%, 100%)" offset="0.226563"/><stop stop-opacity="1" stop-color="rgb(16.334534%, 73.817444%, 100%)" offset="0.230469"/><stop stop-opacity="1" stop-color="rgb(16.459656%, 73.54126%, 100%)" offset="0.234375"/><stop stop-opacity="1" stop-color="rgb(16.583252%, 73.265076%, 100%)" offset="0.238281"/><stop stop-opacity="1" stop-color="rgb(16.708374%, 72.988892%, 100%)" offset="0.242188"/><stop stop-opacity="1" stop-color="rgb(16.83197%, 72.711182%, 100%)" offset="0.246094"/><stop stop-opacity="1" stop-color="rgb(16.957092%, 72.434998%, 100%)" offset="0.25"/><stop stop-opacity="1" stop-color="rgb(17.080688%, 72.158813%, 100%)" offset="0.253906"/><stop stop-opacity="1" stop-color="rgb(17.205811%, 71.882629%, 100%)" offset="0.257812"/><stop stop-opacity="1" stop-color="rgb(17.329407%, 71.606445%, 100%)" offset="0.261719"/><stop stop-opacity="1" stop-color="rgb(17.454529%, 71.330261%, 100%)" offset="0.265625"/><stop stop-opacity="1" stop-color="rgb(17.578125%, 71.054077%, 100%)" offset="0.269531"/><stop stop-opacity="1" stop-color="rgb(17.701721%, 70.777893%, 100%)" offset="0.273438"/><stop stop-opacity="1" stop-color="rgb(17.825317%, 70.501709%, 100%)" offset="0.277344"/><stop stop-opacity="1" stop-color="rgb(17.950439%, 70.225525%, 100%)" offset="0.28125"/><stop stop-opacity="1" stop-color="rgb(18.074036%, 69.949341%, 100%)" offset="0.285156"/><stop stop-opacity="1" stop-color="rgb(18.199158%, 69.673157%, 100%)" offset="0.289062"/><stop stop-opacity="1" stop-color="rgb(18.322754%, 69.396973%, 100%)" offset="0.292969"/><stop stop-opacity="1" stop-color="rgb(18.447876%, 69.120789%, 100%)" offset="0.296875"/><stop stop-opacity="1" stop-color="rgb(18.571472%, 68.844604%, 100%)" offset="0.300781"/><stop stop-opacity="1" stop-color="rgb(18.696594%, 68.56842%, 100%)" offset="0.304688"/><stop stop-opacity="1" stop-color="rgb(18.82019%, 68.292236%, 100%)" offset="0.308594"/><stop stop-opacity="1" stop-color="rgb(18.945312%, 68.016052%, 100%)" offset="0.3125"/><stop stop-opacity="1" stop-color="rgb(19.068909%, 67.739868%, 100%)" offset="0.316406"/><stop stop-opacity="1" stop-color="rgb(19.194031%, 67.463684%, 100%)" offset="0.320312"/><stop stop-opacity="1" stop-color="rgb(19.317627%, 67.1875%, 100%)" offset="0.324219"/><stop stop-opacity="1" stop-color="rgb(19.442749%, 66.911316%, 100%)" offset="0.328125"/><stop stop-opacity="1" stop-color="rgb(19.566345%, 66.635132%, 100%)" offset="0.332031"/><stop stop-opacity="1" stop-color="rgb(19.689941%, 66.358948%, 100%)" offset="0.335938"/><stop stop-opacity="1" stop-color="rgb(19.813538%, 66.082764%, 100%)" offset="0.339844"/><stop stop-opacity="1" stop-color="rgb(19.93866%, 65.80658%, 100%)" offset="0.34375"/><stop stop-opacity="1" stop-color="rgb(20.062256%, 65.530396%, 100%)" offset="0.347656"/><stop stop-opacity="1" stop-color="rgb(20.187378%, 65.254211%, 100%)" offset="0.351563"/><stop stop-opacity="1" stop-color="rgb(20.310974%, 64.978027%, 100%)" offset="0.355469"/><stop stop-opacity="1" stop-color="rgb(20.436096%, 64.701843%, 100%)" offset="0.359375"/><stop stop-opacity="1" stop-color="rgb(20.559692%, 64.425659%, 100%)" offset="0.363281"/><stop stop-opacity="1" stop-color="rgb(20.684814%, 64.149475%, 100%)" offset="0.367188"/><stop stop-opacity="1" stop-color="rgb(20.808411%, 63.873291%, 100%)" offset="0.371094"/><stop stop-opacity="1" stop-color="rgb(20.933533%, 63.597107%, 100%)" offset="0.375"/><stop stop-opacity="1" stop-color="rgb(21.057129%, 63.320923%, 100%)" offset="0.378906"/><stop stop-opacity="1" stop-color="rgb(21.182251%, 63.044739%, 100%)" offset="0.382812"/><stop stop-opacity="1" stop-color="rgb(21.305847%, 62.768555%, 100%)" offset="0.386719"/><stop stop-opacity="1" stop-color="rgb(21.430969%, 62.492371%, 100%)" offset="0.390625"/><stop stop-opacity="1" stop-color="rgb(21.554565%, 62.216187%, 100%)" offset="0.394531"/><stop stop-opacity="1" stop-color="rgb(21.678162%, 61.940002%, 100%)" offset="0.398437"/><stop stop-opacity="1" stop-color="rgb(21.801758%, 61.663818%, 100%)" offset="0.402344"/><stop stop-opacity="1" stop-color="rgb(21.92688%, 61.387634%, 100%)" offset="0.40625"/><stop stop-opacity="1" stop-color="rgb(22.050476%, 61.11145%, 100%)" offset="0.410156"/><stop stop-opacity="1" stop-color="rgb(22.175598%, 60.835266%, 100%)" offset="0.414062"/><stop stop-opacity="1" stop-color="rgb(22.299194%, 60.559082%, 100%)" offset="0.417969"/><stop stop-opacity="1" stop-color="rgb(22.424316%, 60.282898%, 100%)" offset="0.421875"/><stop stop-opacity="1" stop-color="rgb(22.547913%, 60.006714%, 100%)" offset="0.425781"/><stop stop-opacity="1" stop-color="rgb(22.673035%, 59.73053%, 100%)" offset="0.429688"/><stop stop-opacity="1" stop-color="rgb(22.796631%, 59.454346%, 100%)" offset="0.433594"/><stop stop-opacity="1" stop-color="rgb(22.921753%, 59.178162%, 100%)" offset="0.4375"/><stop stop-opacity="1" stop-color="rgb(23.045349%, 58.901978%, 100%)" offset="0.441406"/><stop stop-opacity="1" stop-color="rgb(23.170471%, 58.625793%, 100%)" offset="0.445312"/><stop stop-opacity="1" stop-color="rgb(23.294067%, 58.349609%, 100%)" offset="0.449219"/><stop stop-opacity="1" stop-color="rgb(23.419189%, 58.073425%, 100%)" offset="0.453125"/><stop stop-opacity="1" stop-color="rgb(23.542786%, 57.797241%, 100%)" offset="0.457031"/><stop stop-opacity="1" stop-color="rgb(23.667908%, 57.521057%, 100%)" offset="0.460938"/><stop stop-opacity="1" stop-color="rgb(23.791504%, 57.244873%, 100%)" offset="0.464844"/><stop stop-opacity="1" stop-color="rgb(23.9151%, 56.968689%, 100%)" offset="0.46875"/><stop stop-opacity="1" stop-color="rgb(24.038696%, 56.692505%, 100%)" offset="0.472656"/><stop stop-opacity="1" stop-color="rgb(24.163818%, 56.416321%, 100%)" offset="0.476562"/><stop stop-opacity="1" stop-color="rgb(24.287415%, 56.140137%, 100%)" offset="0.480469"/><stop stop-opacity="1" stop-color="rgb(24.412537%, 55.863953%, 100%)" offset="0.484375"/><stop stop-opacity="1" stop-color="rgb(24.536133%, 55.587769%, 100%)" offset="0.488281"/><stop stop-opacity="1" stop-color="rgb(24.661255%, 55.311584%, 100%)" offset="0.492188"/><stop stop-opacity="1" stop-color="rgb(24.784851%, 55.0354%, 100%)" offset="0.496094"/><stop stop-opacity="1" stop-color="rgb(24.909973%, 54.759216%, 100%)" offset="0.5"/><stop stop-opacity="1" stop-color="rgb(25.033569%, 54.483032%, 100%)" offset="0.503906"/><stop stop-opacity="1" stop-color="rgb(25.158691%, 54.206848%, 100%)" offset="0.507812"/><stop stop-opacity="1" stop-color="rgb(25.282288%, 53.930664%, 100%)" offset="0.511719"/><stop stop-opacity="1" stop-color="rgb(25.40741%, 53.65448%, 100%)" offset="0.515625"/><stop stop-opacity="1" stop-color="rgb(25.531006%, 53.378296%, 100%)" offset="0.519531"/><stop stop-opacity="1" stop-color="rgb(25.656128%, 53.102112%, 100%)" offset="0.523438"/><stop stop-opacity="1" stop-color="rgb(25.779724%, 52.825928%, 100%)" offset="0.527344"/><stop stop-opacity="1" stop-color="rgb(25.90332%, 52.549744%, 100%)" offset="0.53125"/><stop stop-opacity="1" stop-color="rgb(26.026917%, 52.27356%, 100%)" offset="0.535156"/><stop stop-opacity="1" stop-color="rgb(26.152039%, 51.997375%, 100%)" offset="0.539062"/><stop stop-opacity="1" stop-color="rgb(26.275635%, 51.721191%, 100%)" offset="0.542969"/><stop stop-opacity="1" stop-color="rgb(26.400757%, 51.445007%, 100%)" offset="0.546875"/><stop stop-opacity="1" stop-color="rgb(26.524353%, 51.167297%, 100%)" offset="0.550781"/><stop stop-opacity="1" stop-color="rgb(26.649475%, 50.891113%, 100%)" offset="0.554687"/><stop stop-opacity="1" stop-color="rgb(26.773071%, 50.614929%, 100%)" offset="0.558594"/><stop stop-opacity="1" stop-color="rgb(26.898193%, 50.338745%, 100%)" offset="0.5625"/><stop stop-opacity="1" stop-color="rgb(27.02179%, 50.062561%, 100%)" offset="0.566406"/><stop stop-opacity="1" stop-color="rgb(27.146912%, 49.786377%, 100%)" offset="0.570312"/><stop stop-opacity="1" stop-color="rgb(27.270508%, 49.510193%, 100%)" offset="0.574219"/><stop stop-opacity="1" stop-color="rgb(27.39563%, 49.234009%, 100%)" offset="0.578125"/><stop stop-opacity="1" stop-color="rgb(27.519226%, 48.957825%, 100%)" offset="0.582031"/><stop stop-opacity="1" stop-color="rgb(27.644348%, 48.681641%, 100%)" offset="0.585938"/><stop stop-opacity="1" stop-color="rgb(27.767944%, 48.405457%, 100%)" offset="0.589844"/><stop stop-opacity="1" stop-color="rgb(27.891541%, 48.129272%, 100%)" offset="0.59375"/><stop stop-opacity="1" stop-color="rgb(28.015137%, 47.853088%, 100%)" offset="0.597656"/><stop stop-opacity="1" stop-color="rgb(28.140259%, 47.576904%, 100%)" offset="0.601562"/><stop stop-opacity="1" stop-color="rgb(28.263855%, 47.30072%, 100%)" offset="0.605469"/><stop stop-opacity="1" stop-color="rgb(28.388977%, 47.024536%, 100%)" offset="0.609375"/><stop stop-opacity="1" stop-color="rgb(28.512573%, 46.748352%, 100%)" offset="0.613281"/><stop stop-opacity="1" stop-color="rgb(28.637695%, 46.472168%, 100%)" offset="0.617188"/><stop stop-opacity="1" stop-color="rgb(28.761292%, 46.195984%, 100%)" offset="0.621094"/><stop stop-opacity="1" stop-color="rgb(28.886414%, 45.9198%, 100%)" offset="0.625"/><stop stop-opacity="1" stop-color="rgb(29.01001%, 45.643616%, 100%)" offset="0.628906"/><stop stop-opacity="1" stop-color="rgb(29.135132%, 45.367432%, 100%)" offset="0.632812"/><stop stop-opacity="1" stop-color="rgb(29.258728%, 45.091248%, 100%)" offset="0.636719"/><stop stop-opacity="1" stop-color="rgb(29.38385%, 44.815063%, 100%)" offset="0.640625"/><stop stop-opacity="1" stop-color="rgb(29.507446%, 44.538879%, 100%)" offset="0.644531"/><stop stop-opacity="1" stop-color="rgb(29.632568%, 44.262695%, 100%)" offset="0.648438"/><stop stop-opacity="1" stop-color="rgb(29.756165%, 43.986511%, 100%)" offset="0.652344"/><stop stop-opacity="1" stop-color="rgb(29.879761%, 43.710327%, 100%)" offset="0.65625"/><stop stop-opacity="1" stop-color="rgb(30.003357%, 43.434143%, 100%)" offset="0.660156"/><stop stop-opacity="1" stop-color="rgb(30.128479%, 43.157959%, 100%)" offset="0.664062"/><stop stop-opacity="1" stop-color="rgb(30.252075%, 42.881775%, 100%)" offset="0.667969"/><stop stop-opacity="1" stop-color="rgb(30.377197%, 42.605591%, 100%)" offset="0.671875"/><stop stop-opacity="1" stop-color="rgb(30.500793%, 42.329407%, 100%)" offset="0.675781"/><stop stop-opacity="1" stop-color="rgb(30.625916%, 42.053223%, 100%)" offset="0.679688"/><stop stop-opacity="1" stop-color="rgb(30.749512%, 41.777039%, 100%)" offset="0.683594"/><stop stop-opacity="1" stop-color="rgb(30.874634%, 41.500854%, 100%)" offset="0.6875"/><stop stop-opacity="1" stop-color="rgb(30.99823%, 41.22467%, 100%)" offset="0.691406"/><stop stop-opacity="1" stop-color="rgb(31.123352%, 40.948486%, 100%)" offset="0.695313"/><stop stop-opacity="1" stop-color="rgb(31.246948%, 40.672302%, 100%)" offset="0.699219"/><stop stop-opacity="1" stop-color="rgb(31.37207%, 40.396118%, 100%)" offset="0.703125"/><stop stop-opacity="1" stop-color="rgb(31.495667%, 40.119934%, 100%)" offset="0.707031"/><stop stop-opacity="1" stop-color="rgb(31.620789%, 39.84375%, 100%)" offset="0.710938"/><stop stop-opacity="1" stop-color="rgb(31.744385%, 39.567566%, 100%)" offset="0.714844"/><stop stop-opacity="1" stop-color="rgb(31.869507%, 39.291382%, 100%)" offset="0.71875"/><stop stop-opacity="1" stop-color="rgb(31.993103%, 39.015198%, 100%)" offset="0.722656"/><stop stop-opacity="1" stop-color="rgb(32.116699%, 38.739014%, 100%)" offset="0.726562"/><stop stop-opacity="1" stop-color="rgb(32.240295%, 38.46283%, 100%)" offset="0.730469"/><stop stop-opacity="1" stop-color="rgb(32.365417%, 38.186646%, 100%)" offset="0.734375"/><stop stop-opacity="1" stop-color="rgb(32.489014%, 37.910461%, 100%)" offset="0.738281"/><stop stop-opacity="1" stop-color="rgb(32.614136%, 37.634277%, 100%)" offset="0.742188"/><stop stop-opacity="1" stop-color="rgb(32.737732%, 37.358093%, 100%)" offset="0.746094"/><stop stop-opacity="1" stop-color="rgb(32.862854%, 37.081909%, 100%)" offset="0.75"/><stop stop-opacity="1" stop-color="rgb(32.98645%, 36.805725%, 100%)" offset="0.753906"/><stop stop-opacity="1" stop-color="rgb(33.111572%, 36.529541%, 100%)" offset="0.757812"/><stop stop-opacity="1" stop-color="rgb(33.235168%, 36.253357%, 100%)" offset="0.761719"/><stop stop-opacity="1" stop-color="rgb(33.360291%, 35.977173%, 100%)" offset="0.765625"/><stop stop-opacity="1" stop-color="rgb(33.483887%, 35.700989%, 100%)" offset="0.769531"/><stop stop-opacity="1" stop-color="rgb(33.609009%, 35.424805%, 100%)" offset="0.773438"/><stop stop-opacity="1" stop-color="rgb(33.732605%, 35.148621%, 100%)" offset="0.777344"/><stop stop-opacity="1" stop-color="rgb(33.857727%, 34.872437%, 100%)" offset="0.78125"/><stop stop-opacity="1" stop-color="rgb(33.981323%, 34.596252%, 100%)" offset="0.785156"/><stop stop-opacity="1" stop-color="rgb(34.104919%, 34.320068%, 100%)" offset="0.789063"/><stop stop-opacity="1" stop-color="rgb(34.228516%, 34.043884%, 100%)" offset="0.792969"/><stop stop-opacity="1" stop-color="rgb(34.353638%, 33.7677%, 100%)" offset="0.796875"/><stop stop-opacity="1" stop-color="rgb(34.477234%, 33.491516%, 100%)" offset="0.800781"/><stop stop-opacity="1" stop-color="rgb(34.602356%, 33.215332%, 100%)" offset="0.804688"/><stop stop-opacity="1" stop-color="rgb(34.725952%, 32.939148%, 100%)" offset="0.808594"/><stop stop-opacity="1" stop-color="rgb(34.851074%, 32.662964%, 100%)" offset="0.8125"/><stop stop-opacity="1" stop-color="rgb(34.97467%, 32.38678%, 100%)" offset="0.816406"/><stop stop-opacity="1" stop-color="rgb(35.099792%, 32.110596%, 100%)" offset="0.820312"/><stop stop-opacity="1" stop-color="rgb(35.223389%, 31.834412%, 100%)" offset="0.824219"/><stop stop-opacity="1" stop-color="rgb(35.348511%, 31.558228%, 100%)" offset="0.828125"/><stop stop-opacity="1" stop-color="rgb(35.472107%, 31.282043%, 100%)" offset="0.832031"/><stop stop-opacity="1" stop-color="rgb(35.597229%, 31.005859%, 100%)" offset="0.835938"/><stop stop-opacity="1" stop-color="rgb(35.720825%, 30.729675%, 100%)" offset="0.839844"/><stop stop-opacity="1" stop-color="rgb(35.845947%, 30.453491%, 100%)" offset="0.84375"/><stop stop-opacity="1" stop-color="rgb(35.969543%, 30.177307%, 100%)" offset="0.847656"/><stop stop-opacity="1" stop-color="rgb(36.09314%, 29.901123%, 100%)" offset="0.851562"/><stop stop-opacity="1" stop-color="rgb(36.216736%, 29.623413%, 100%)" offset="0.855469"/><stop stop-opacity="1" stop-color="rgb(36.341858%, 29.347229%, 100%)" offset="0.859375"/><stop stop-opacity="1" stop-color="rgb(36.419678%, 29.173279%, 100%)" offset="0.875"/><stop stop-opacity="1" stop-color="rgb(36.499023%, 28.999329%, 100%)" offset="1"/></linearGradient></defs><g clip-path="url(#6f9ca2c6ad)"><path fill="#ffffff" d="M 0 0.148438 L 55.003906 0.148438 L 55.003906 60.355469 L 0 60.355469 Z M 0 0.148438 " fill-opacity="1" fill-rule="nonzero"/><path fill="#ffffff" d="M 0 0.148438 L 55.003906 0.148438 L 55.003906 60.355469 L 0 60.355469 Z M 0 0.148438 " fill-opacity="1" fill-rule="nonzero"/></g><g clip-path="url(#4ec9d674b5)"><g clip-path="url(#8ba3bcb9db)"><path fill="url(#ac7cde2e1d)" d="M 0 0.167969 L 0 60.332031 L 55.003906 60.332031 L 55.003906 0.167969 Z M 0 0.167969 " fill-rule="nonzero"/></g></g></svg>