<svg xmlns="http://www.w3.org/2000/svg" xmlns:xlink="http://www.w3.org/1999/xlink" width="62" zoomAndPan="magnify" viewBox="0 0 46.5 46.5" height="62" preserveAspectRatio="xMidYMid meet" version="1.0"><defs><clipPath id="65adf0ce9c"><path d="M 0.578125 0.578125 L 45.101562 0.578125 L 45.101562 45.101562 L 0.578125 45.101562 Z M 0.578125 0.578125 " clip-rule="nonzero"/></clipPath></defs><g clip-path="url(#65adf0ce9c)"><path fill="#17bbff" d="M 45.429688 23.003906 C 45.429688 17.015625 43.097656 11.382812 38.863281 7.148438 C 34.625 2.910156 28.996094 0.578125 23.003906 0.578125 C 17.015625 0.578125 11.382812 2.910156 7.148438 7.148438 C 2.910156 11.382812 0.578125 17.015625 0.578125 23.003906 C 0.578125 28.996094 2.910156 34.625 7.148438 38.863281 C 11.382812 43.097656 17.015625 45.429688 23.003906 45.429688 C 28.996094 45.429688 34.625 43.097656 38.863281 38.863281 C 43.097656 34.625 45.429688 28.996094 45.429688 23.003906 Z M 2.074219 23.746094 L 11.246094 23.746094 C 11.296875 26.804688 11.664062 29.757812 12.316406 32.460938 C 10.066406 33.132812 7.925781 34.019531 5.925781 35.117188 C 3.625 31.882812 2.222656 27.972656 2.074219 23.746094 Z M 5.925781 10.890625 C 7.925781 11.988281 10.066406 12.875 12.316406 13.546875 C 11.664062 16.25 11.296875 19.207031 11.246094 22.265625 L 2.074219 22.265625 C 2.222656 18.039062 3.625 14.125 5.925781 10.890625 Z M 43.933594 22.265625 L 34.761719 22.265625 C 34.710938 19.207031 34.347656 16.25 33.695312 13.546875 C 35.941406 12.875 38.082031 11.988281 40.082031 10.890625 C 42.382812 14.125 43.785156 18.039062 43.933594 22.265625 Z M 33.28125 22.265625 L 23.746094 22.265625 L 23.746094 15.066406 C 26.679688 15.011719 29.542969 14.632812 32.265625 13.941406 C 32.882812 16.519531 33.230469 19.339844 33.28125 22.265625 Z M 23.746094 13.585938 L 23.746094 2.113281 C 26.125 2.46875 28.375 4.53125 30.140625 8.007812 C 30.832031 9.367188 31.417969 10.878906 31.890625 12.507812 C 29.285156 13.167969 26.550781 13.53125 23.746094 13.585938 Z M 22.265625 2.113281 L 22.265625 13.585938 C 19.457031 13.53125 16.722656 13.167969 14.121094 12.507812 C 14.589844 10.878906 15.175781 9.367188 15.867188 8.007812 C 17.636719 4.53125 19.882812 2.46875 22.265625 2.113281 Z M 22.265625 15.066406 L 22.265625 22.265625 L 12.726562 22.265625 C 12.777344 19.339844 13.125 16.519531 13.742188 13.941406 C 16.464844 14.632812 19.328125 15.011719 22.265625 15.066406 Z M 12.726562 23.746094 L 22.265625 23.746094 L 22.265625 30.941406 C 19.328125 30.996094 16.464844 31.375 13.742188 32.066406 C 13.125 29.492188 12.777344 26.671875 12.726562 23.746094 Z M 22.265625 32.421875 L 22.265625 43.894531 C 19.882812 43.539062 17.636719 41.480469 15.867188 38.003906 C 15.175781 36.644531 14.589844 35.128906 14.121094 33.5 C 16.722656 32.839844 19.457031 32.476562 22.265625 32.421875 Z M 23.746094 43.894531 L 23.746094 32.421875 C 26.550781 32.476562 29.285156 32.839844 31.890625 33.5 C 31.417969 35.128906 30.832031 36.644531 30.140625 38.003906 C 28.375 41.480469 26.125 43.539062 23.746094 43.894531 Z M 23.746094 30.941406 L 23.746094 23.746094 L 33.28125 23.746094 C 33.230469 26.671875 32.882812 29.492188 32.265625 32.066406 C 29.542969 31.375 26.679688 30.996094 23.746094 30.941406 Z M 34.761719 23.746094 L 43.933594 23.746094 C 43.785156 27.972656 42.382812 31.882812 40.082031 35.117188 C 38.082031 34.019531 35.941406 33.132812 33.695312 32.460938 C 34.347656 29.757812 34.710938 26.804688 34.761719 23.746094 Z M 39.171875 9.703125 C 37.332031 10.691406 35.371094 11.496094 33.316406 12.113281 C 32.816406 10.386719 32.195312 8.78125 31.460938 7.335938 C 30.460938 5.367188 29.296875 3.796875 28.023438 2.667969 C 32.464844 3.765625 36.347656 6.277344 39.171875 9.703125 Z M 17.984375 2.667969 C 16.710938 3.796875 15.550781 5.367188 14.546875 7.335938 C 13.8125 8.78125 13.191406 10.386719 12.695312 12.113281 C 10.636719 11.496094 8.675781 10.691406 6.839844 9.703125 C 9.660156 6.277344 13.546875 3.765625 17.984375 2.667969 Z M 6.839844 36.304688 C 8.675781 35.320312 10.636719 34.511719 12.695312 33.894531 C 13.191406 35.621094 13.8125 37.226562 14.546875 38.671875 C 15.550781 40.644531 16.710938 42.210938 17.984375 43.339844 C 13.546875 42.242188 9.660156 39.730469 6.839844 36.304688 Z M 28.023438 43.339844 C 29.296875 42.210938 30.460938 40.644531 31.460938 38.671875 C 32.195312 37.230469 32.816406 35.621094 33.316406 33.894531 C 35.371094 34.511719 37.332031 35.320312 39.171875 36.304688 C 36.347656 39.730469 32.460938 42.242188 28.023438 43.339844 Z M 28.023438 43.339844 " fill-opacity="1" fill-rule="nonzero"/></g></svg>