<svg xmlns="http://www.w3.org/2000/svg" xmlns:xlink="http://www.w3.org/1999/xlink" width="74" zoomAndPan="magnify" viewBox="0 0 55.5 60.749998" height="81" preserveAspectRatio="xMidYMid meet" version="1.0"><defs><clipPath id="51860626ab"><path d="M 23.578125 55.59375 L 29.910156 55.59375 L 29.910156 58.867188 L 23.578125 58.867188 Z M 23.578125 55.59375 " clip-rule="nonzero"/></clipPath><clipPath id="e2343329b9"><path d="M 26 0.148438 L 28 0.148438 L 28 4 L 26 4 Z M 26 0.148438 " clip-rule="nonzero"/></clipPath><clipPath id="bdbfcbd9cd"><path d="M 53.917969 32.277344 L 55.003906 32.277344 L 55.003906 33.199219 L 53.917969 33.199219 Z M 53.917969 32.277344 " clip-rule="nonzero"/></clipPath><clipPath id="a9342f2940"><path d="M 53 20 L 55.003906 20 L 55.003906 22 L 53 22 Z M 53 20 " clip-rule="nonzero"/></clipPath></defs><path fill="#17a3fe" d="M 21.488281 17.992188 C 19.121094 17.992188 17.140625 19.835938 16.972656 22.191406 L 16.957031 22.441406 L 16.734375 22.546875 C 14.410156 23.679688 12.964844 25.988281 12.964844 28.570312 C 12.964844 29.949219 13.378906 31.269531 14.167969 32.398438 L 14.269531 32.546875 L 14.238281 32.722656 C 14.226562 32.785156 14.21875 32.84375 14.210938 32.90625 L 14.191406 33.027344 L 14.113281 33.125 C 12.953125 34.535156 12.3125 36.324219 12.3125 38.15625 C 12.3125 42.0625 15.21875 45.433594 19.078125 46 L 19.246094 46.027344 L 19.351562 46.160156 C 20.394531 47.484375 22.03125 48.347656 23.964844 48.59375 C 24.269531 48.632812 24.566406 48.539062 24.796875 48.335938 C 25.027344 48.132812 25.160156 47.839844 25.160156 47.53125 L 25.160156 18.050781 C 25.160156 17.355469 24.65625 17.042969 24.222656 16.988281 C 23.796875 16.929688 23.234375 17.101562 23.058594 17.765625 L 22.945312 18.210938 L 22.535156 18.113281 C 22.191406 18.03125 21.835938 17.992188 21.488281 17.992188 Z M 24.09375 49.460938 C 24.015625 49.460938 23.9375 49.457031 23.855469 49.445312 C 21.765625 49.179688 19.96875 48.25 18.785156 46.824219 C 16.785156 46.488281 14.953125 45.464844 13.613281 43.925781 C 12.21875 42.328125 11.453125 40.277344 11.453125 38.15625 C 11.453125 36.183594 12.125 34.257812 13.34375 32.710938 C 12.53125 31.480469 12.105469 30.050781 12.105469 28.570312 C 12.105469 27.125 12.515625 25.722656 13.289062 24.511719 C 13.996094 23.402344 14.980469 22.5 16.140625 21.886719 C 16.453125 19.203125 18.757812 17.132812 21.488281 17.132812 C 21.777344 17.132812 22.066406 17.15625 22.355469 17.203125 C 22.703125 16.453125 23.472656 16.023438 24.335938 16.136719 C 25.144531 16.242188 26.019531 16.886719 26.019531 18.050781 L 26.019531 47.53125 C 26.019531 48.085938 25.78125 48.613281 25.363281 48.980469 C 25.011719 49.292969 24.558594 49.460938 24.09375 49.460938 " fill-opacity="1" fill-rule="nonzero"/><path fill="#17a3fe" d="M 19.46875 46.839844 C 19.21875 46.839844 18.972656 46.824219 18.722656 46.789062 L 18.84375 45.9375 C 19.75 46.066406 20.691406 45.914062 21.488281 45.511719 L 21.875 46.277344 C 21.140625 46.648438 20.308594 46.839844 19.46875 46.839844 " fill-opacity="1" fill-rule="nonzero"/><path fill="#17a3fe" d="M 22.058594 46.601562 C 22.441406 46.371094 22.566406 45.878906 22.335938 45.496094 C 22.109375 45.113281 21.613281 44.988281 21.230469 45.21875 C 20.847656 45.445312 20.722656 45.941406 20.953125 46.324219 C 21.179688 46.707031 21.675781 46.832031 22.058594 46.601562 " fill-opacity="1" fill-rule="nonzero"/><path fill="#17a3fe" d="M 17.449219 36.121094 C 15.738281 35.402344 14.320312 34.21875 13.347656 32.707031 L 14.070312 32.242188 C 14.949219 33.609375 16.234375 34.679688 17.78125 35.332031 L 17.449219 36.121094 " fill-opacity="1" fill-rule="nonzero"/><path fill="#17a3fe" d="M 17.292969 36.464844 C 17.710938 36.621094 18.175781 36.410156 18.335938 35.992188 C 18.492188 35.578125 18.28125 35.109375 17.863281 34.953125 C 17.445312 34.796875 16.980469 35.007812 16.824219 35.425781 C 16.667969 35.84375 16.878906 36.308594 17.292969 36.464844 " fill-opacity="1" fill-rule="nonzero"/><path fill="#17a3fe" d="M 15.394531 23.40625 L 14.882812 22.71875 C 16.324219 21.644531 18.066406 21.035156 19.921875 20.957031 L 19.957031 21.816406 C 18.273438 21.882812 16.699219 22.433594 15.394531 23.40625 " fill-opacity="1" fill-rule="nonzero"/><path fill="#17a3fe" d="M 19.898438 22.195312 C 20.34375 22.195312 20.707031 21.832031 20.703125 21.386719 C 20.703125 20.941406 20.34375 20.582031 19.894531 20.582031 C 19.449219 20.582031 19.089844 20.945312 19.089844 21.390625 C 19.089844 21.835938 19.453125 22.195312 19.898438 22.195312 " fill-opacity="1" fill-rule="nonzero"/><path fill="#17a3fe" d="M 21.191406 26.789062 L 20.691406 26.09375 C 21.898438 25.226562 22.777344 23.910156 23.097656 22.484375 C 23.472656 20.804688 23.09375 18.976562 22.082031 17.589844 L 22.777344 17.082031 C 23.933594 18.667969 24.363281 20.757812 23.933594 22.671875 C 23.566406 24.300781 22.570312 25.804688 21.191406 26.789062 " fill-opacity="1" fill-rule="nonzero"/><path fill="#17a3fe" d="M 20.539062 25.734375 C 20.164062 25.976562 20.054688 26.472656 20.292969 26.847656 C 20.53125 27.226562 21.03125 27.335938 21.40625 27.097656 C 21.78125 26.859375 21.894531 26.359375 21.65625 25.984375 C 21.414062 25.605469 20.917969 25.496094 20.539062 25.734375 " fill-opacity="1" fill-rule="nonzero"/><path fill="#17a3fe" d="M 25.46875 40.621094 C 24.230469 40.265625 23.113281 39.253906 22.242188 37.707031 C 21.9375 37.167969 21.679688 36.609375 21.429688 36.066406 C 21.097656 35.351562 20.785156 34.675781 20.382812 34.042969 C 19.648438 32.890625 18.628906 31.925781 17.429688 31.25 L 17.851562 30.503906 C 19.171875 31.246094 20.296875 32.3125 21.105469 33.582031 C 21.539062 34.265625 21.878906 34.996094 22.207031 35.703125 C 22.453125 36.230469 22.703125 36.777344 22.988281 37.285156 C 23.519531 38.226562 24.417969 39.425781 25.707031 39.796875 L 25.46875 40.621094 " fill-opacity="1" fill-rule="nonzero"/><path fill="#17a3fe" d="M 17.304688 31.617188 C 16.910156 31.414062 16.753906 30.925781 16.957031 30.53125 C 17.164062 30.132812 17.648438 29.976562 18.046875 30.183594 C 18.441406 30.386719 18.597656 30.875 18.390625 31.269531 C 18.1875 31.667969 17.699219 31.820312 17.304688 31.617188 " fill-opacity="1" fill-rule="nonzero"/><path fill="#17a3fe" d="M 29.441406 16.976562 C 29.390625 16.976562 29.339844 16.980469 29.289062 16.988281 C 28.859375 17.042969 28.355469 17.355469 28.355469 18.050781 L 28.355469 47.53125 C 28.355469 47.839844 28.488281 48.132812 28.71875 48.335938 C 28.949219 48.539062 29.246094 48.632812 29.550781 48.59375 C 31.480469 48.347656 33.121094 47.484375 34.164062 46.160156 L 34.269531 46.027344 L 34.4375 46 C 38.292969 45.433594 41.203125 42.0625 41.203125 38.15625 C 41.203125 36.324219 40.5625 34.535156 39.398438 33.125 L 39.320312 33.027344 L 39.304688 32.90625 C 39.296875 32.84375 39.289062 32.78125 39.277344 32.722656 L 39.242188 32.546875 L 39.347656 32.398438 C 40.132812 31.269531 40.550781 29.949219 40.550781 28.570312 C 40.550781 25.988281 39.105469 23.679688 36.78125 22.546875 L 36.558594 22.441406 L 36.539062 22.191406 C 36.375 19.835938 34.390625 17.992188 32.027344 17.992188 C 31.675781 17.992188 31.324219 18.03125 30.980469 18.113281 L 30.566406 18.210938 L 30.453125 17.765625 C 30.296875 17.179688 29.84375 16.976562 29.441406 16.976562 Z M 29.417969 49.460938 C 28.957031 49.460938 28.503906 49.292969 28.148438 48.980469 C 27.734375 48.613281 27.496094 48.085938 27.496094 47.53125 L 27.496094 18.050781 C 27.496094 16.886719 28.367188 16.242188 29.179688 16.136719 C 30.039062 16.023438 30.8125 16.453125 31.160156 17.203125 C 31.449219 17.15625 31.738281 17.132812 32.027344 17.132812 C 34.757812 17.132812 37.058594 19.203125 37.375 21.886719 C 38.535156 22.5 39.515625 23.402344 40.226562 24.511719 C 41 25.722656 41.410156 27.125 41.410156 28.570312 C 41.410156 30.050781 40.980469 31.480469 40.171875 32.710938 C 41.390625 34.257812 42.058594 36.183594 42.058594 38.15625 C 42.058594 40.277344 41.292969 42.328125 39.902344 43.925781 C 38.5625 45.464844 36.730469 46.488281 34.730469 46.824219 C 33.542969 48.25 31.75 49.179688 29.660156 49.445312 C 29.578125 49.457031 29.5 49.460938 29.417969 49.460938 " fill-opacity="1" fill-rule="nonzero"/><path fill="#17a3fe" d="M 34.042969 46.839844 C 33.207031 46.839844 32.375 46.648438 31.640625 46.277344 L 32.023438 45.511719 C 32.824219 45.914062 33.765625 46.066406 34.671875 45.9375 L 34.789062 46.789062 C 34.542969 46.824219 34.292969 46.839844 34.042969 46.839844 " fill-opacity="1" fill-rule="nonzero"/><path fill="#17a3fe" d="M 32.285156 45.21875 C 31.902344 44.988281 31.40625 45.113281 31.175781 45.496094 C 30.949219 45.878906 31.074219 46.371094 31.457031 46.601562 C 31.839844 46.832031 32.332031 46.707031 32.5625 46.324219 C 32.792969 45.941406 32.667969 45.445312 32.285156 45.21875 " fill-opacity="1" fill-rule="nonzero"/><path fill="#17a3fe" d="M 36.066406 36.121094 L 35.730469 35.332031 C 37.28125 34.679688 38.566406 33.609375 39.445312 32.242188 L 40.167969 32.707031 C 39.195312 34.21875 37.773438 35.402344 36.066406 36.121094 " fill-opacity="1" fill-rule="nonzero"/><path fill="#17a3fe" d="M 35.652344 34.953125 C 35.234375 35.109375 35.023438 35.578125 35.179688 35.992188 C 35.335938 36.410156 35.800781 36.621094 36.21875 36.464844 C 36.636719 36.308594 36.847656 35.84375 36.691406 35.425781 C 36.535156 35.007812 36.070312 34.796875 35.652344 34.953125 " fill-opacity="1" fill-rule="nonzero"/><path fill="#17a3fe" d="M 38.117188 23.40625 C 36.816406 22.433594 35.238281 21.882812 33.558594 21.816406 L 33.59375 20.957031 C 35.449219 21.035156 37.191406 21.644531 38.632812 22.71875 L 38.117188 23.40625 " fill-opacity="1" fill-rule="nonzero"/><path fill="#17a3fe" d="M 33.617188 20.582031 C 33.171875 20.582031 32.808594 20.941406 32.808594 21.386719 C 32.808594 21.832031 33.167969 22.195312 33.617188 22.195312 C 34.0625 22.195312 34.421875 21.835938 34.421875 21.390625 C 34.425781 20.945312 34.0625 20.582031 33.617188 20.582031 " fill-opacity="1" fill-rule="nonzero"/><path fill="#17a3fe" d="M 32.324219 26.789062 C 30.945312 25.804688 29.945312 24.300781 29.578125 22.671875 C 29.148438 20.757812 29.582031 18.667969 30.738281 17.082031 L 31.429688 17.589844 C 30.417969 18.976562 30.039062 20.804688 30.417969 22.484375 C 30.738281 23.910156 31.613281 25.226562 32.824219 26.09375 L 32.324219 26.789062 " fill-opacity="1" fill-rule="nonzero"/><path fill="#17a3fe" d="M 32.109375 27.097656 C 32.484375 27.335938 32.980469 27.226562 33.222656 26.847656 C 33.460938 26.472656 33.351562 25.976562 32.972656 25.734375 C 32.597656 25.496094 32.097656 25.605469 31.859375 25.984375 C 31.621094 26.359375 31.730469 26.859375 32.109375 27.097656 " fill-opacity="1" fill-rule="nonzero"/><path fill="#17a3fe" d="M 28.042969 40.621094 L 27.804688 39.796875 C 29.09375 39.425781 29.996094 38.226562 30.523438 37.285156 C 30.808594 36.777344 31.0625 36.230469 31.308594 35.703125 C 31.632812 34.996094 31.972656 34.265625 32.40625 33.582031 C 33.214844 32.3125 34.339844 31.246094 35.660156 30.503906 L 36.082031 31.25 C 34.886719 31.925781 33.863281 32.890625 33.132812 34.042969 C 32.730469 34.675781 32.417969 35.351562 32.085938 36.066406 C 31.835938 36.609375 31.574219 37.167969 31.273438 37.707031 C 30.402344 39.253906 29.285156 40.265625 28.042969 40.621094 " fill-opacity="1" fill-rule="nonzero"/><path fill="#17a3fe" d="M 35.46875 30.183594 C 35.863281 29.976562 36.351562 30.132812 36.554688 30.53125 C 36.761719 30.925781 36.605469 31.414062 36.210938 31.617188 C 35.8125 31.820312 35.328125 31.667969 35.121094 31.269531 C 34.917969 30.875 35.074219 30.386719 35.46875 30.183594 " fill-opacity="1" fill-rule="nonzero"/><path fill="#17a3fe" d="M 30.683594 51.046875 L 22.828125 51.046875 C 22.59375 51.046875 22.402344 50.855469 22.402344 50.617188 C 22.402344 50.378906 22.59375 50.1875 22.828125 50.1875 L 30.683594 50.1875 C 30.921875 50.1875 31.113281 50.378906 31.113281 50.617188 C 31.113281 50.855469 30.921875 51.046875 30.683594 51.046875 " fill-opacity="1" fill-rule="nonzero"/><path fill="#17a3fe" d="M 30.683594 52.738281 L 22.828125 52.738281 C 22.59375 52.738281 22.402344 52.546875 22.402344 52.308594 C 22.402344 52.070312 22.59375 51.878906 22.828125 51.878906 L 30.683594 51.878906 C 30.921875 51.878906 31.113281 52.070312 31.113281 52.308594 C 31.113281 52.546875 30.921875 52.738281 30.683594 52.738281 " fill-opacity="1" fill-rule="nonzero"/><path fill="#17a3fe" d="M 30.683594 54.429688 L 22.828125 54.429688 C 22.59375 54.429688 22.402344 54.238281 22.402344 54 C 22.402344 53.761719 22.59375 53.570312 22.828125 53.570312 L 30.683594 53.570312 C 30.921875 53.570312 31.113281 53.761719 31.113281 54 C 31.113281 54.238281 30.921875 54.429688 30.683594 54.429688 " fill-opacity="1" fill-rule="nonzero"/><path fill="#17a3fe" d="M 30.683594 56.121094 L 22.828125 56.121094 C 22.59375 56.121094 22.402344 55.929688 22.402344 55.691406 C 22.402344 55.453125 22.59375 55.261719 22.828125 55.261719 L 30.683594 55.261719 C 30.921875 55.261719 31.113281 55.453125 31.113281 55.691406 C 31.113281 55.929688 30.921875 56.121094 30.683594 56.121094 " fill-opacity="1" fill-rule="nonzero"/><g clip-path="url(#51860626ab)"><path fill="#17a3fe" d="M 26.757812 59.085938 C 25.027344 59.085938 23.621094 57.675781 23.621094 55.949219 L 23.621094 55.890625 L 24.476562 55.90625 L 24.476562 55.949219 C 24.476562 57.203125 25.5 58.226562 26.757812 58.226562 C 28.015625 58.226562 29.035156 57.203125 29.035156 55.949219 C 29.035156 55.875 29.03125 55.800781 29.027344 55.730469 L 29.882812 55.652344 C 29.890625 55.75 29.894531 55.847656 29.894531 55.949219 C 29.894531 57.675781 28.488281 59.085938 26.757812 59.085938 " fill-opacity="1" fill-rule="nonzero"/></g><path fill="#17a3fe" d="M 26.757812 11.957031 C 26.519531 11.957031 26.328125 11.765625 26.328125 11.527344 L 26.328125 8.558594 C 26.328125 8.320312 26.519531 8.128906 26.757812 8.128906 C 26.992188 8.128906 27.1875 8.320312 27.1875 8.558594 L 27.1875 11.527344 C 27.1875 11.765625 26.992188 11.957031 26.757812 11.957031 " fill-opacity="1" fill-rule="nonzero"/><g clip-path="url(#e2343329b9)"><path fill="#17a3fe" d="M 26.757812 3.761719 C 26.519531 3.761719 26.328125 3.570312 26.328125 3.332031 L 26.328125 0.582031 C 26.328125 0.34375 26.519531 0.152344 26.757812 0.152344 C 26.992188 0.152344 27.1875 0.34375 27.1875 0.582031 L 27.1875 3.332031 C 27.1875 3.570312 26.992188 3.761719 26.757812 3.761719 " fill-opacity="1" fill-rule="nonzero"/></g><path fill="#17a3fe" d="M 41.65625 18.21875 C 41.546875 18.21875 41.4375 18.175781 41.351562 18.089844 C 41.1875 17.921875 41.1875 17.652344 41.351562 17.484375 L 45.316406 13.519531 C 45.484375 13.351562 45.757812 13.351562 45.925781 13.519531 C 46.09375 13.6875 46.09375 13.960938 45.925781 14.125 L 41.960938 18.089844 C 41.875 18.175781 41.765625 18.21875 41.65625 18.21875 " fill-opacity="1" fill-rule="nonzero"/><path fill="#17a3fe" d="M 46.960938 12.914062 C 46.851562 12.914062 46.742188 12.871094 46.65625 12.789062 C 46.488281 12.621094 46.488281 12.347656 46.65625 12.179688 L 49.09375 9.746094 C 49.261719 9.578125 49.53125 9.578125 49.699219 9.746094 C 49.867188 9.914062 49.867188 10.183594 49.699219 10.351562 L 47.261719 12.789062 C 47.179688 12.871094 47.070312 12.914062 46.960938 12.914062 " fill-opacity="1" fill-rule="nonzero"/><path fill="#17a3fe" d="M 51.441406 33.179688 L 47.765625 33.179688 C 47.527344 33.179688 47.335938 32.988281 47.335938 32.75 C 47.335938 32.515625 47.527344 32.320312 47.765625 32.320312 L 51.441406 32.320312 C 51.679688 32.320312 51.871094 32.515625 51.871094 32.75 C 51.871094 32.988281 51.679688 33.179688 51.441406 33.179688 " fill-opacity="1" fill-rule="nonzero"/><g clip-path="url(#bdbfcbd9cd)"><path fill="#17a3fe" d="M 58.710938 33.179688 L 54.375 33.179688 C 54.136719 33.179688 53.945312 32.988281 53.945312 32.75 C 53.945312 32.515625 54.136719 32.320312 54.375 32.320312 L 58.710938 32.320312 C 58.945312 32.320312 59.140625 32.515625 59.140625 32.75 C 59.140625 32.988281 58.945312 33.179688 58.710938 33.179688 " fill-opacity="1" fill-rule="nonzero"/></g><path fill="#17a3fe" d="M 43.492188 50.070312 C 43.382812 50.070312 43.273438 50.027344 43.191406 49.945312 L 41.199219 47.953125 C 41.035156 47.785156 41.035156 47.515625 41.199219 47.347656 C 41.367188 47.179688 41.640625 47.179688 41.808594 47.347656 L 43.796875 49.335938 C 43.964844 49.503906 43.964844 49.777344 43.796875 49.945312 C 43.714844 50.027344 43.601562 50.070312 43.492188 50.070312 " fill-opacity="1" fill-rule="nonzero"/><path fill="#17a3fe" d="M 48.941406 55.691406 L 44.910156 51.664062 C 44.742188 51.496094 44.742188 51.222656 44.910156 51.058594 C 45.078125 50.890625 45.347656 50.890625 45.515625 51.058594 L 49.546875 55.085938 L 48.941406 55.691406 " fill-opacity="1" fill-rule="nonzero"/><path fill="#17a3fe" d="M 10.679688 48.890625 C 10.566406 48.890625 10.457031 48.847656 10.375 48.765625 C 10.207031 48.597656 10.207031 48.324219 10.375 48.15625 L 11.335938 47.195312 C 11.503906 47.027344 11.777344 47.027344 11.945312 47.195312 C 12.113281 47.363281 12.113281 47.632812 11.945312 47.800781 L 10.980469 48.765625 C 10.898438 48.847656 10.789062 48.890625 10.679688 48.890625 " fill-opacity="1" fill-rule="nonzero"/><path fill="#17a3fe" d="M 3.902344 55.667969 C 3.792969 55.667969 3.683594 55.625 3.597656 55.539062 C 3.429688 55.371094 3.429688 55.101562 3.597656 54.933594 L 7.125 51.40625 C 7.292969 51.238281 7.5625 51.238281 7.730469 51.40625 C 7.898438 51.574219 7.898438 51.847656 7.730469 52.015625 L 4.207031 55.539062 C 4.121094 55.625 4.011719 55.667969 3.902344 55.667969 " fill-opacity="1" fill-rule="nonzero"/><path fill="#17a3fe" d="M 5.53125 32.964844 L 1.613281 32.964844 C 1.375 32.964844 1.183594 32.773438 1.183594 32.535156 C 1.183594 32.296875 1.375 32.105469 1.613281 32.105469 L 5.53125 32.105469 C 5.769531 32.105469 5.960938 32.296875 5.960938 32.535156 C 5.960938 32.773438 5.769531 32.964844 5.53125 32.964844 " fill-opacity="1" fill-rule="nonzero"/><path fill="#17a3fe" d="M 11.792969 18.0625 C 11.683594 18.0625 11.574219 18.023438 11.492188 17.9375 L 9.316406 15.765625 C 9.148438 15.597656 9.148438 15.324219 9.316406 15.15625 C 9.484375 14.988281 9.757812 14.988281 9.921875 15.15625 L 12.097656 17.332031 C 12.265625 17.5 12.265625 17.769531 12.097656 17.9375 C 12.015625 18.023438 11.902344 18.0625 11.792969 18.0625 " fill-opacity="1" fill-rule="nonzero"/><path fill="#17a3fe" d="M 7.261719 13.53125 C 7.152344 13.53125 7.042969 13.492188 6.957031 13.40625 L 3.75 10.199219 C 3.585938 10.03125 3.585938 9.761719 3.75 9.59375 C 3.917969 9.425781 4.191406 9.425781 4.359375 9.59375 L 7.566406 12.800781 C 7.734375 12.96875 7.734375 13.238281 7.566406 13.40625 C 7.480469 13.492188 7.371094 13.53125 7.261719 13.53125 " fill-opacity="1" fill-rule="nonzero"/><path fill="#17a3fe" d="M 19.808594 14.347656 C 19.664062 14.347656 19.527344 14.277344 19.445312 14.148438 L 18.199219 12.167969 C 18.070312 11.964844 18.132812 11.703125 18.332031 11.574219 C 18.53125 11.449219 18.796875 11.507812 18.925781 11.710938 L 20.171875 13.691406 C 20.296875 13.890625 20.238281 14.15625 20.035156 14.28125 C 19.964844 14.328125 19.886719 14.347656 19.808594 14.347656 " fill-opacity="1" fill-rule="nonzero"/><path fill="#17a3fe" d="M 17.132812 10.097656 C 16.992188 10.097656 16.851562 10.027344 16.769531 9.898438 L 15.019531 7.121094 C 14.894531 6.917969 14.953125 6.65625 15.15625 6.527344 C 15.355469 6.402344 15.621094 6.460938 15.746094 6.664062 L 17.496094 9.441406 C 17.621094 9.640625 17.5625 9.90625 17.359375 10.03125 C 17.289062 10.078125 17.210938 10.097656 17.132812 10.097656 " fill-opacity="1" fill-rule="nonzero"/><path fill="#17a3fe" d="M 33.902344 14.347656 C 33.824219 14.347656 33.746094 14.328125 33.675781 14.28125 C 33.472656 14.15625 33.414062 13.890625 33.539062 13.691406 L 34.957031 11.441406 C 35.082031 11.238281 35.347656 11.179688 35.546875 11.304688 C 35.75 11.433594 35.808594 11.695312 35.683594 11.898438 L 34.265625 14.148438 C 34.183594 14.277344 34.046875 14.347656 33.902344 14.347656 " fill-opacity="1" fill-rule="nonzero"/><path fill="#17a3fe" d="M 36.941406 9.519531 C 36.863281 9.519531 36.785156 9.5 36.710938 9.457031 C 36.511719 9.328125 36.453125 9.0625 36.578125 8.863281 L 37.964844 6.664062 C 38.089844 6.460938 38.355469 6.402344 38.554688 6.527344 C 38.753906 6.65625 38.816406 6.917969 38.691406 7.121094 L 37.304688 9.320312 C 37.222656 9.449219 37.082031 9.519531 36.941406 9.519531 " fill-opacity="1" fill-rule="nonzero"/><path fill="#17a3fe" d="M 7.746094 25.320312 L 4.023438 23.621094 C 3.808594 23.519531 3.714844 23.265625 3.8125 23.050781 C 3.910156 22.835938 4.164062 22.738281 4.382812 22.839844 L 8.101562 24.539062 L 7.746094 25.320312 " fill-opacity="1" fill-rule="nonzero"/><path fill="#17a3fe" d="M 1.652344 22.492188 C 1.589844 22.492188 1.53125 22.480469 1.472656 22.453125 L -1.855469 20.929688 C -2.070312 20.832031 -2.167969 20.578125 -2.066406 20.359375 C -1.96875 20.144531 -1.714844 20.050781 -1.5 20.148438 L 1.828125 21.671875 C 2.042969 21.769531 2.140625 22.023438 2.039062 22.242188 C 1.96875 22.398438 1.8125 22.492188 1.652344 22.492188 " fill-opacity="1" fill-rule="nonzero"/><path fill="#17a3fe" d="M 45.550781 25.320312 L 45.195312 24.539062 L 49.03125 22.785156 C 49.25 22.6875 49.503906 22.78125 49.601562 22.996094 C 49.699219 23.214844 49.605469 23.46875 49.390625 23.566406 L 45.550781 25.320312 " fill-opacity="1" fill-rule="nonzero"/><g clip-path="url(#a9342f2940)"><path fill="#17a3fe" d="M 53.472656 21.65625 C 53.3125 21.65625 53.15625 21.5625 53.082031 21.40625 C 52.984375 21.191406 53.078125 20.933594 53.296875 20.835938 L 54.796875 20.148438 C 55.011719 20.050781 55.265625 20.144531 55.367188 20.359375 C 55.464844 20.578125 55.371094 20.832031 55.15625 20.929688 L 53.652344 21.617188 C 53.59375 21.644531 53.535156 21.65625 53.472656 21.65625 " fill-opacity="1" fill-rule="nonzero"/></g><path fill="#17a3fe" d="M 5.222656 41.65625 C 5.070312 41.65625 4.921875 41.574219 4.84375 41.429688 C 4.730469 41.21875 4.8125 40.960938 5.019531 40.847656 L 7.570312 39.496094 C 7.78125 39.382812 8.039062 39.464844 8.152344 39.671875 C 8.261719 39.882812 8.183594 40.140625 7.972656 40.253906 L 5.425781 41.605469 C 5.359375 41.640625 5.289062 41.65625 5.222656 41.65625 " fill-opacity="1" fill-rule="nonzero"/><path fill="#17a3fe" d="M -0.703125 44.859375 L -1.105469 44.101562 L 2.671875 42.09375 C 2.882812 41.984375 3.140625 42.0625 3.253906 42.273438 C 3.363281 42.484375 3.285156 42.742188 3.074219 42.855469 L -0.703125 44.859375 " fill-opacity="1" fill-rule="nonzero"/><path fill="#17a3fe" d="M 47.582031 41.230469 C 47.515625 41.230469 47.445312 41.214844 47.382812 41.179688 L 45.636719 40.253906 C 45.425781 40.140625 45.347656 39.882812 45.457031 39.671875 C 45.570312 39.464844 45.828125 39.382812 46.039062 39.496094 L 47.785156 40.421875 C 47.992188 40.535156 48.074219 40.792969 47.960938 41.003906 C 47.886719 41.148438 47.734375 41.230469 47.582031 41.230469 " fill-opacity="1" fill-rule="nonzero"/><path fill="#17a3fe" d="M 54.511719 44.910156 C 54.445312 44.910156 54.375 44.894531 54.3125 44.859375 L 50.097656 42.621094 C 49.886719 42.511719 49.804688 42.25 49.917969 42.042969 C 50.027344 41.832031 50.289062 41.753906 50.5 41.863281 L 54.714844 44.101562 C 54.921875 44.214844 55.003906 44.472656 54.894531 44.683594 C 54.816406 44.828125 54.667969 44.910156 54.511719 44.910156 " fill-opacity="1" fill-rule="nonzero"/></svg>