<svg width="183" height="40" viewBox="0 0 183 40" fill="none" xmlns="http://www.w3.org/2000/svg">
<g clip-path="url(#clip0_1292_728)">
<path d="M40.4187 3.00934C40.3063 3.01613 39.9487 3.03987 39.6268 3.05684C32.2042 3.50125 25.2515 6.16094 20.848 10.2489C18.3959 12.5218 16.8276 15.1001 16.235 17.831C16.0255 18.7843 16 19.0659 16 20.3584C16 21.6509 16.0255 21.9325 16.235 22.8858C17.6552 29.4027 24.6385 34.8781 34.1096 36.9068C35.8057 37.2698 37.5936 37.5175 39.6268 37.6667C40.4186 37.7244 43.8413 37.7244 44.6332 37.6667C48.1427 37.4089 51.1159 36.8322 54.0481 35.8382C54.4977 35.6855 54.5845 35.6448 54.5232 35.6109C54.4824 35.5906 52.5667 33.8841 50.2678 31.8215L46.0891 28.0729L40.8529 22.9265C37.9717 20.0972 35.6013 17.7835 35.5809 17.7835C35.5605 17.7801 35.54 20.0666 35.5298 22.8586C35.5145 27.7472 35.5094 27.9439 35.4174 28.0593C35.2846 28.2255 35.1824 28.2934 34.9679 28.368C34.8044 28.4223 34.6614 28.4325 33.89 28.4325H33.0062L32.7712 28.3341C32.618 28.2696 32.5056 28.1848 32.4289 28.0864L32.3217 27.9338L32.3319 21.1319L32.3472 14.3266L32.5056 14.1943C32.5873 14.1231 32.761 14.0315 32.8836 13.9874C33.0931 13.9195 33.1748 13.9127 34.0586 13.9127C35.1007 13.9127 35.2744 13.9399 35.5451 14.1366C35.6218 14.1909 38.457 17.027 41.849 20.4432C45.2411 23.8594 49.8796 28.5241 52.158 30.814L56.2959 34.9765L56.5053 34.8849C58.3597 34.0843 60.3214 32.9444 61.8744 31.7571C65.1796 29.2365 67.3098 26.1629 68.025 22.8858C68.2345 21.9325 68.26 21.6509 68.26 20.3584C68.26 19.0659 68.2345 18.7843 68.025 17.831C66.6048 11.3141 59.6215 5.83865 50.1503 3.80996C48.4799 3.45036 46.7021 3.20271 44.7098 3.05344C44.2194 3.01952 40.8427 2.9822 40.4187 3.00934ZM51.1159 13.5056C51.3611 13.587 51.5603 13.7431 51.6318 13.9059C51.6727 13.9941 51.6829 15.8803 51.6727 20.1311L51.6574 26.2308L50.038 24.582L48.4135 22.9333V18.4993C48.4135 15.6327 48.4339 14.0213 48.4645 13.9432C48.5463 13.7533 48.7251 13.604 48.9703 13.5158C49.1797 13.4446 49.2564 13.4378 50.0584 13.4378C50.8145 13.4378 50.9473 13.4446 51.1159 13.5056Z" fill="#B5C964"/>
</g>
<path d="M102.073 14.0909V25H100.081L95.3345 18.1339H95.2546V25H92.9482V14.0909H94.9723L99.6811 20.9517H99.777V14.0909H102.073ZM107.665 25.1598C106.823 25.1598 106.098 24.9893 105.491 24.6484C104.888 24.304 104.422 23.8175 104.096 23.1889C103.769 22.5568 103.606 21.8093 103.606 20.9464C103.606 20.1048 103.769 19.3661 104.096 18.7305C104.422 18.0948 104.882 17.5994 105.475 17.2443C106.072 16.8892 106.771 16.7116 107.574 16.7116C108.114 16.7116 108.616 16.7987 109.081 16.9727C109.55 17.1431 109.959 17.4006 110.307 17.745C110.658 18.0895 110.932 18.5227 111.127 19.0447C111.322 19.5632 111.42 20.1705 111.42 20.8665V21.4897H104.511V20.0835H109.284C109.284 19.7567 109.213 19.4673 109.071 19.2152C108.929 18.9631 108.732 18.766 108.479 18.6239C108.231 18.4783 107.941 18.4055 107.611 18.4055C107.267 18.4055 106.961 18.4854 106.695 18.6452C106.432 18.8015 106.226 19.0128 106.077 19.2791C105.928 19.5419 105.852 19.8349 105.848 20.158V21.495C105.848 21.8999 105.923 22.2496 106.072 22.5444C106.225 22.8391 106.439 23.0664 106.716 23.2262C106.993 23.386 107.322 23.4659 107.702 23.4659C107.954 23.4659 108.185 23.4304 108.394 23.3594C108.604 23.2884 108.783 23.1818 108.932 23.0398C109.081 22.8977 109.195 22.7237 109.273 22.5178L111.372 22.6562C111.265 23.1605 111.047 23.6009 110.717 23.9773C110.39 24.3501 109.967 24.6413 109.449 24.8509C108.934 25.0568 108.339 25.1598 107.665 25.1598ZM114.65 16.8182L116.153 19.6786L117.692 16.8182H120.02L117.649 20.9091L120.084 25H117.767L116.153 22.1715L114.565 25H112.222L114.65 20.9091L112.307 16.8182H114.65ZM125.719 16.8182V18.5227H120.792V16.8182H125.719ZM121.911 14.858H124.18V22.4858C124.18 22.6953 124.212 22.8587 124.276 22.9759C124.34 23.0895 124.429 23.1694 124.542 23.2156C124.659 23.2617 124.794 23.2848 124.947 23.2848C125.054 23.2848 125.16 23.2759 125.267 23.2582C125.373 23.2369 125.455 23.2209 125.512 23.2102L125.869 24.8988C125.755 24.9343 125.595 24.9751 125.389 25.0213C125.183 25.071 124.933 25.1012 124.638 25.1119C124.091 25.1332 123.612 25.0604 123.2 24.8935C122.791 24.7266 122.474 24.4673 122.246 24.1158C122.019 23.7642 121.907 23.3203 121.911 22.7841V14.858ZM135.08 14.0909H137.36V21.6974C137.36 22.4006 137.202 23.0114 136.885 23.5298C136.573 24.0483 136.138 24.4478 135.58 24.7283C135.023 25.0089 134.375 25.1491 133.636 25.1491C132.979 25.1491 132.383 25.0337 131.846 24.8029C131.314 24.5685 130.891 24.2134 130.579 23.7376C130.266 23.2582 130.112 22.6562 130.115 21.9318H132.411C132.418 22.2195 132.477 22.4663 132.587 22.6722C132.7 22.8746 132.855 23.0309 133.05 23.141C133.249 23.2475 133.483 23.3008 133.753 23.3008C134.037 23.3008 134.277 23.2404 134.472 23.1197C134.671 22.9954 134.822 22.8143 134.925 22.5763C135.028 22.3384 135.08 22.0455 135.08 21.6974V14.0909ZM146.031 19.1513L143.954 19.2791C143.919 19.1016 143.842 18.9418 143.725 18.7997C143.608 18.6541 143.453 18.5387 143.262 18.4535C143.073 18.3647 142.848 18.3203 142.585 18.3203C142.233 18.3203 141.937 18.3949 141.695 18.544C141.454 18.6896 141.333 18.8849 141.333 19.13C141.333 19.3253 141.411 19.4904 141.568 19.6254C141.724 19.7603 141.992 19.8686 142.372 19.9503L143.853 20.2486C144.648 20.4119 145.241 20.6747 145.632 21.0369C146.023 21.3991 146.218 21.875 146.218 22.4645C146.218 23.0007 146.06 23.4712 145.744 23.8761C145.431 24.2809 145.002 24.5969 144.455 24.8242C143.911 25.0479 143.285 25.1598 142.574 25.1598C141.491 25.1598 140.628 24.9343 139.986 24.4833C139.346 24.0288 138.972 23.4109 138.862 22.6296L141.094 22.5124C141.161 22.8427 141.324 23.0948 141.584 23.2688C141.843 23.4393 142.175 23.5245 142.58 23.5245C142.977 23.5245 143.297 23.4482 143.539 23.2955C143.784 23.1392 143.908 22.9386 143.911 22.6935C143.908 22.4876 143.821 22.3189 143.65 22.1875C143.48 22.0526 143.217 21.9496 142.862 21.8786L141.445 21.5962C140.646 21.4364 140.051 21.1594 139.661 20.7653C139.274 20.3711 139.08 19.8686 139.08 19.2578C139.08 18.7322 139.222 18.2795 139.506 17.8995C139.794 17.5195 140.197 17.2266 140.715 17.0206C141.237 16.8146 141.848 16.7116 142.548 16.7116C143.581 16.7116 144.394 16.93 144.987 17.3668C145.584 17.8036 145.932 18.3984 146.031 19.1513Z" fill="black"/>
<defs>
<clipPath id="clip0_1292_728">
<rect width="52.26" height="34.71" fill="white" transform="translate(16 3)"/>
</clipPath>
</defs>
</svg>
